<?xml version="1.0" encoding="utf-8"?>
<svg width="800px" height="800px" viewBox="0 0 64 64" xmlns="http://www.w3.org/2000/svg" stroke-width="3" stroke="#000000" fill="none" xmlns:bx="https://boxy-svg.com">
  <defs>
    <bx:grid x="5.991" y="20.158" width="100" height="100" color="red"/>
  </defs>
  <path d="M 16.918 28.947 C 16.324 28.947 15.753 29.038 15.185 29.121 C 15.369 28.502 15.558 27.873 15.862 27.307 C 16.166 26.486 16.641 25.774 17.113 25.057 C 17.508 24.281 18.204 23.755 18.716 23.091 C 19.252 22.446 19.982 22.017 20.561 21.481 C 21.129 20.921 21.873 20.641 22.465 20.246 C 23.084 19.891 23.622 19.499 24.198 19.313 L 25.636 18.721 L 26.9 18.195 L 25.606 13.027 L 24.014 13.411 C 23.505 13.539 22.884 13.689 22.177 13.867 C 21.454 14.001 20.684 14.366 19.825 14.699 C 18.977 15.078 17.996 15.334 17.084 15.942 C 16.166 16.523 15.108 17.009 14.174 17.787 C 13.27 18.59 12.18 19.286 11.374 20.307 C 10.494 21.262 9.625 22.265 8.95 23.406 C 8.169 24.494 7.638 25.689 7.078 26.87 C 6.572 28.051 6.164 29.259 5.83 30.433 C 5.198 32.785 4.916 35.019 4.806 36.931 C 4.716 38.846 4.769 40.438 4.881 41.59 C 4.921 42.134 4.996 42.662 5.049 43.027 L 5.116 43.475 L 5.185 43.459 C 7.119 52.492 18.106 56.045 24.962 49.853 C 31.817 43.662 29.4 32.371 20.611 29.529 C 19.418 29.144 18.172 28.947 16.918 28.947 Z M 46.252 28.947 C 45.657 28.947 45.086 29.038 44.518 29.121 C 44.702 28.502 44.892 27.873 45.196 27.307 C 45.5 26.486 45.974 25.774 46.446 25.057 C 46.841 24.281 47.537 23.755 48.049 23.091 C 48.585 22.446 49.316 22.017 49.894 21.481 C 50.462 20.921 51.206 20.641 51.798 20.246 C 52.417 19.891 52.956 19.499 53.532 19.313 L 54.969 18.721 L 56.233 18.195 L 54.94 13.027 L 53.348 13.411 C 52.838 13.539 52.217 13.689 51.51 13.867 C 50.788 14.001 50.017 14.366 49.158 14.699 C 48.313 15.081 47.329 15.334 46.417 15.945 C 45.5 16.526 44.441 17.011 43.508 17.79 C 42.604 18.593 41.513 19.289 40.708 20.307 C 39.828 21.262 38.958 22.265 38.284 23.406 C 37.502 24.494 36.972 25.689 36.412 26.87 C 35.905 28.051 35.497 29.259 35.164 30.433 C 34.532 32.785 34.249 35.019 34.14 36.931 C 34.049 38.846 34.102 40.438 34.214 41.59 C 34.254 42.134 34.329 42.662 34.382 43.027 L 34.449 43.475 L 34.518 43.459 C 36.452 52.492 47.439 56.045 54.295 49.853 C 61.151 43.662 58.734 32.371 49.944 29.529 C 48.751 29.144 47.505 28.947 46.252 28.947 Z" style="fill: rgb(4, 92, 64); stroke: rgb(4, 92, 64); stroke-width: 0px;"/>
</svg>