<?xml version="1.0" encoding="UTF-8"?>
<svg id="Layer_1" data-name="Layer 1" xmlns="http://www.w3.org/2000/svg" viewBox="0 0 483.12 700.23">
  <defs>
    <style>
      .cls-1 {
        fill: #045c40;
      }

      .cls-2 {
        fill: #e6941d;
      }
    </style>
  </defs>
  <path class="cls-1" d="M233.75,185.47c0,4.31,3.5,7.81,7.81,7.81s7.81-3.5,7.81-7.81-3.5-7.81-7.81-7.81-7.81,3.5-7.81,7.81Z"/>
  <path class="cls-2" d="M154.3,531.8c1.64-.55,3.2-1.09,4.84-1.56-1.56.47-3.2,1.02-4.84,1.56ZM154.3,531.8c1.64-.55,3.2-1.09,4.84-1.56-1.56.47-3.2,1.02-4.84,1.56Z"/>
  <path class="cls-2" d="M241.41,150.63c19.06,0,34.53,15.47,34.53,34.53s-15.47,34.53-34.53,34.53-34.53-15.47-34.53-34.53,15.55-34.53,34.53-34.53M241.41,135c-27.73,0-50.16,22.42-50.16,50.16s22.42,50.16,50.16,50.16,50.16-22.42,50.16-50.16-22.42-50.16-50.16-50.16h0Z"/>
  <path class="cls-1" d="M412.42,363.83c.31-6.8.47-13.59.47-20.47,0-140.31-67.27-264.92-171.33-343.36C137.58,78.44,70.31,203.05,70.31,343.36c0,6.87.16,13.67.47,20.39C27.03,407.5,0,467.89,0,534.61c0,48.2,14.06,93.05,38.36,130.7,23.67-38.91,58.36-70.39,99.77-90.08,30.47-14.53,64.61-22.66,100.62-22.66s73.36,8.91,104.92,24.77c41.02,20.55,75.23,52.89,98.12,92.5,26.09-38.59,41.33-85.08,41.33-135.23,0-66.72-27.03-127.03-70.7-170.78h0ZM115.86,249.69c7.19-29.61,17.89-58.36,31.72-85.55,13.64-26.8,30.31-51.93,49.69-74.92,13.59-16.09,28.44-31.17,44.38-44.92,15.94,13.75,30.78,28.83,44.37,44.92,19.37,23.05,36.09,48.28,49.69,74.92,13.83,27.19,24.53,55.94,31.72,85.55,6.8,27.97,10.55,56.8,11.09,85.86-38.98-26.8-86.17-42.5-136.95-42.5s-97.89,15.7-136.8,42.5c.55-29.06,4.3-57.89,11.09-85.86ZM45.08,600.62c-7.11-21.09-10.7-43.36-10.7-65.94,0-27.97,5.47-55.16,16.25-80.63,6.56-15.47,14.84-30,24.92-43.36,7.58,48.05,23.05,93.52,45.16,134.84-28.44,13.91-53.91,32.5-75.62,55.08ZM329.61,533.98c-.55-.23-1.17-.39-1.72-.62-.31-.16-.7-.23-1.02-.39-.47-.16-1.02-.39-1.48-.55-.62-.23-1.17-.39-1.8-.62s-1.17-.39-1.8-.55l-.7-.23c-.78-.23-1.64-.55-2.42-.78-.94-.31-1.88-.55-2.73-.86l-2.34-.7c-.16-.08-.31-.08-.55-.16-.86-.23-1.8-.55-2.66-.78-.94-.23-1.88-.47-2.73-.7l-2.81-.7-2.81-.7c-.78-.23-1.64-.39-2.42-.55-.94-.23-1.88-.39-2.81-.62-1.02-.23-1.95-.47-2.97-.62h-.23c-.7-.16-1.48-.31-2.19-.47-.31-.08-.55-.08-.86-.16-.86-.16-1.72-.31-2.66-.47-.94-.16-1.88-.31-2.81-.55l-4.22-.7c-.7-.08-1.48-.23-2.19-.31-.62-.08-1.25-.23-1.95-.31-2.03-.31-3.98-.55-6.02-.78-.94-.08-1.8-.23-2.73-.31h-.31c-.7-.08-1.41-.16-2.19-.23-.86-.08-1.64-.16-2.5-.23-1.33-.16-2.66-.23-3.98-.31-.62-.08-1.17-.08-1.8-.16-.7-.08-1.48-.08-2.19-.16-.31,0-.62,0-.94-.08-.86-.08-1.64-.08-2.5-.16-.39,0-.78-.08-1.17-.08-1.02-.08-2.03-.08-3.05-.08-.62,0-1.17-.08-1.8-.08-.94,0-1.88,0-2.73-.08h-10.86c-1.8,0-3.59.08-5.39.16-.7,0-1.48.08-2.19.08-.62,0-1.17.08-1.8.08-1.09.08-2.19.16-3.2.23-1.09.08-2.11.16-3.2.23s-2.11.16-3.2.31c-.47,0-.94.08-1.41.16l-6.09.7c-.86.08-1.64.23-2.5.31-.78.08-1.64.23-2.42.31-2.5.39-5,.7-7.42,1.17-.55.08-1.09.16-1.64.31-.7.08-1.33.23-2.03.39-.86.16-1.8.31-2.66.47-.7.16-1.33.23-2.03.39-.31.08-.62.08-.86.16-.55.08-1.09.23-1.64.31-.94.23-1.87.39-2.81.62s-1.87.39-2.81.62c-.16,0-.31.08-.47.08-.39.08-.78.16-1.17.31-.86.23-1.8.47-2.73.7-1.02.23-1.95.47-2.97.78-.31.08-.7.16-1.09.31-1.02.31-2.11.55-3.12.86-1.17.31-2.34.7-3.59,1.02-.78.23-1.64.47-2.42.78-1.64.47-3.2,1.02-4.84,1.56-.55.16-1.09.39-1.64.55-11.72-21.48-21.41-44.06-28.91-67.34-9.14-28.2-15-57.5-17.58-87.19-.47-5.23-.78-10.39-1.02-15.62-.08-.94-.08-1.88-.08-2.81-.08-.94-.08-1.88-.08-2.81s-.08-1.88-.08-2.81-.08-1.88-.08-2.89c14.69-10.94,30.63-20.16,47.66-27.34,28.2-11.95,58.2-17.97,89.14-17.97s60.94,6.09,89.14,17.97c17.03,7.19,32.97,16.33,47.66,27.34v.08c0,.78,0,1.48-.08,2.27,0,1.09-.08,2.19-.08,3.36,0,.55,0,1.02-.08,1.56-.08,1.41-.08,2.73-.16,4.14-.23,5.23-.62,10.39-1.02,15.62-2.58,30.08-8.59,59.77-17.97,88.28-7.58,23.67-17.42,46.41-29.37,68.05h0ZM436.48,605c-21.48-23.38-46.96-42.74-75.23-57.19,22.73-41.95,38.67-88.12,46.41-137.11,10,13.36,18.28,27.81,24.84,43.36,10.78,25.55,16.25,52.66,16.25,80.63,0,24.22-4.14,47.89-12.27,70.31Z"/>
  <path class="cls-2" d="M241.56,590.23c6.8,0,19.3,17.89,19.3,47.19s-12.5,47.19-19.3,47.19-19.3-17.89-19.3-47.19,12.5-47.19,19.3-47.19M241.56,574.61c-19.3,0-34.92,28.12-34.92,62.81s15.62,62.81,34.92,62.81,34.92-28.12,34.92-62.81-15.62-62.81-34.92-62.81Z"/>
</svg>