<?xml version="1.0" encoding="UTF-8"?>
<svg id="Layer_1" data-name="Layer 1" xmlns="http://www.w3.org/2000/svg" viewBox="0 0 572.26 572.53">
  <defs>
    <style>
      .cls-1 {
        fill: #045c40;
      }

      .cls-2 {
        fill: #e6941d;
      }
    </style>
  </defs>
  <path class="cls-2" d="M387.42,425.86h-231.09c-6.48,0-11.8-5.31-11.8-11.8v-230.47c0-4.3-3.52-7.81-7.81-7.81s-7.81,3.52-7.81,7.81v230.47c0,15.16,12.27,27.42,27.42,27.42h231.09c4.3,0,7.81-3.52,7.81-7.81s-3.44-7.81-7.81-7.81"/>
  <path class="cls-1" d="M556.64,198.52c8.59,0,15.62-7.03,15.62-15.62s-7.03-15.62-15.62-15.62h-54.45v-44.37c0-30.16-24.53-54.69-54.69-54.69h-21.72V15.62c0-8.59-7.03-15.62-15.62-15.62s-15.62,7.03-15.62,15.62v52.58h-36.33V15.62c0-8.59-7.03-15.62-15.62-15.62s-15.62,7.03-15.62,15.62v52.58h-36.33V15.62c0-8.59-7.03-15.62-15.62-15.62s-15.62,7.03-15.62,15.62v52.58h-36.33V15.62c0-8.59-7.03-15.62-15.62-15.62s-15.62,7.03-15.62,15.62v52.58h-67.03c-30.16,0-54.69,24.53-54.69,54.69v44.37H15.62c-8.59,0-15.62,7.03-15.62,15.62s7.03,15.62,15.62,15.62h54.45v36.33H15.62c-8.59,0-15.62,7.03-15.62,15.62s7.03,15.62,15.62,15.62h54.45v36.33H15.62c-8.59,0-15.62,7.03-15.62,15.62s7.03,15.62,15.62,15.62h54.45v36.33H15.62c-8.59,0-15.62,7.03-15.62,15.62s7.03,15.62,15.62,15.62h54.45v44.37c0,30.16,24.53,54.69,54.69,54.69h24.06v56.64c0,8.59,7.03,15.62,15.62,15.62s15.62-7.03,15.62-15.62v-56.64h36.33v56.64c0,8.59,7.03,15.62,15.62,15.62s15.62-7.03,15.62-15.62v-56.64h36.33v56.64c0,8.59,7.03,15.62,15.62,15.62s15.62-7.03,15.62-15.62v-56.64h36.33v56.64c0,8.59,7.03,15.62,15.62,15.62s15.62-7.03,15.62-15.62v-56.64h64.69c30.16,0,54.69-24.53,54.69-54.69v-44.37h54.45c8.59,0,15.62-7.03,15.62-15.62s-7.03-15.62-15.62-15.62h-54.45v-36.33h54.45c8.59,0,15.62-7.03,15.62-15.62s-7.03-15.62-15.62-15.62h-54.45v-36.33h54.45c8.59,0,15.62-7.03,15.62-15.62s-7.03-15.62-15.62-15.62h-54.45v-36.33h54.45l.04.02h0ZM470.94,445.55c0,12.89-10.55,23.44-23.44,23.44H124.77c-12.89,0-23.44-10.55-23.44-23.44V122.89c0-12.89,10.55-23.44,23.44-23.44h322.73c12.89,0,23.44,10.55,23.44,23.44v322.66Z"/>
  <path class="cls-1" d="M205.32,310.04h39.3l8.59,22.34h21.56l-39.37-98.28h-21.02l-38.28,98.28h21.09l8.12-22.34h.01ZM224.69,256.99l13.52,36.48h-26.8l13.28-36.48ZM305.16,295.35h12.97c8.98,0,15.86-.47,20.63-1.41,3.52-.78,6.95-2.34,10.31-4.69s6.17-5.55,8.36-9.69,3.28-9.22,3.28-15.23c0-7.81-1.88-14.22-5.7-19.14s-8.52-8.12-14.14-9.61c-3.67-1.02-11.56-1.48-23.59-1.48h-31.95v98.28h19.84v-37.03h0ZM305.16,250.74h9.61c7.19,0,11.88.23,14.3.7,3.2.55,5.86,2.03,7.97,4.38s3.12,5.31,3.12,8.83c0,2.89-.78,5.47-2.27,7.66s-3.59,3.83-6.17,4.84c-2.66,1.02-7.89,1.56-15.7,1.56h-10.86v-27.97h0ZM376.33,234.1h19.84v98.28h-19.84v-98.28Z"/>
</svg>