<?xml version="1.0" encoding="UTF-8"?>
<svg id="Layer_1" data-name="Layer 1" xmlns="http://www.w3.org/2000/svg" viewBox="0 0 645.08 500">
  <defs>
    <style>
      .cls-1 {
        fill: #045c40;
      }

      .cls-2 {
        fill: #e6941d;
      }

      .cls-3 {
        fill: #e6e6e6;
      }
    </style>
  </defs>
  <path class="cls-3" d="M613.91,54.69c0-12.89-10.55-23.44-23.44-23.44H54.69c-12.89,0-23.44,10.55-23.44,23.44v93.83h582.58V54.69h.08,0ZM106.33,129.77c-22.03,0-40-17.97-40-40s17.97-40,40-40,40,17.97,40,40-17.89,40-40,40h0ZM326.48,124.45h-111.41c-18.83,0-34.14-15.31-34.14-34.14s15.31-34.14,34.14-34.14h111.41c18.83,0,34.14,15.31,34.14,34.14s-15.31,34.14-34.14,34.14h0Z"/>
  <path class="cls-2" d="M88.98,441.17h233.44c4.3,0,7.81-3.52,7.81-7.81s-3.52-7.81-7.81-7.81H88.98c-6.64,0-12.03-5.39-12.03-12.03v-150.62c0-4.3-3.52-7.81-7.81-7.81s-7.81,3.52-7.81,7.81v150.7c.08,15.16,12.42,27.58,27.66,27.58h-.01Z"/>
  <path class="cls-1" d="M106.33,49.77c-22.03,0-40,17.97-40,40s17.97,40,40,40,40-17.97,40-40-17.89-40-40-40h0ZM106.33,114.14c-13.44,0-24.37-10.94-24.37-24.38s10.94-24.38,24.37-24.38,24.38,10.94,24.38,24.38-10.94,24.38-24.37,24.38h-.01Z"/>
  <path class="cls-1" d="M326.48,56.25h-111.41c-18.83,0-34.14,15.31-34.14,34.14s15.31,34.14,34.14,34.14h111.41c18.83,0,34.14-15.31,34.14-34.14s-15.31-34.14-34.14-34.14h0ZM326.48,108.83h-111.41c-10.16,0-18.52-8.28-18.52-18.52s8.28-18.52,18.52-18.52h111.41c10.16,0,18.52,8.28,18.52,18.52s-8.36,18.52-18.52,18.52h0Z"/>
  <path class="cls-1" d="M590.47,0H54.69C24.53,0,0,24.53,0,54.69v390.62c0,30.16,24.53,54.69,54.69,54.69h535.7c30.16,0,54.69-24.53,54.69-54.69V54.69c.08-30.16-24.45-54.69-54.61-54.69h0ZM613.91,445.31c0,12.89-10.55,23.44-23.44,23.44H54.69c-12.89,0-23.44-10.55-23.44-23.44V164.14h582.58v281.17h.08,0ZM613.91,148.52H31.33V54.69c0-12.89,10.55-23.44,23.44-23.44h535.7c12.89,0,23.44,10.55,23.44,23.44v93.83h0Z"/>
  <path class="cls-1" d="M281.64,341.02l-89.3-35.39,89.3-34.14v-36.33l-127.97,55.39v30.86l127.97,55.63v-36.02ZM366.64,208.36h-26.88l-46.25,193.13h26.41l46.72-193.13h0ZM506.64,290.78l-128.12-55.39v35.78l89.38,34.77-89.38,35.16v36.09l128.12-55.78v-30.63h0Z"/>
</svg>