<?xml version="1.0" encoding="UTF-8"?>
<svg id="Layer_1" data-name="Layer 1" xmlns="http://www.w3.org/2000/svg" viewBox="0 0 799.83 799.84">
  <defs>
    <style>
      .cls-1 {
        fill: #045c40;
      }
    </style>
  </defs>
  <path class="cls-1" d="M774.15,25.68c-34.25-34.24-89.75-34.24-124,0L241.93,433.9c-37.95-8.64-85.1-3.45-131.99,43.44-58.78,58.77-65.54,113.98-72.69,172.44-5.09,41.49-10.34,84.39-35.76,131.59-2.61,4.89-1.74,10.9,2.19,14.8,3.9,3.91,9.91,4.8,14.79,2.17,47.21-25.43,90.11-30.67,131.6-35.75,58.45-7.16,113.65-13.91,172.42-72.69,46.89-46.89,52.09-94.02,43.44-132l408.24-408.21c34.22-34.27,34.22-89.77-.01-124.01ZM304.78,672.17c-52.66,52.68-101.36,58.64-157.74,65.54-34.59,4.24-70.06,8.59-108.74,23.82,15.25-38.69,19.59-74.17,23.81-108.74,6.91-56.37,12.87-105.09,65.54-157.75,87.21-87.21,173.51-3.56,177.11-.01,3.59,3.65,87.23,89.94.01,177.14ZM357.22,531.18c-13.75-32.35-34.25-53.39-34.71-53.85-.48-.46-21.5-20.98-53.85-34.71l292.96-292.95,88.55,88.55-292.95,292.96ZM667.87,220.52l-88.55-88.56,17.71-17.71,88.55,88.56-17.71,17.71ZM703.3,185.09l-88.57-88.56,53.14-53.14c24.46-24.45,64.11-24.45,88.56.01,24.46,24.45,24.46,64.1,0,88.55l-53.12,53.14Z"/>
  <path class="cls-1" d="M269.35,512.77c-4.9,4.9-4.9,12.81,0,17.71,29.35,29.34,29.35,76.91,0,106.27-4.91,4.9-4.9,12.81,0,17.71,4.9,4.89,12.81,4.89,17.71,0,39.13-39.14,39.13-102.58,0-141.7-4.9-4.9-12.83-4.9-17.71,0Z"/>
</svg>