<?xml version="1.0" encoding="UTF-8"?>
<svg id="Layer_1" data-name="Layer 1" xmlns="http://www.w3.org/2000/svg" viewBox="0 0 800 800">
  <defs>
    <style>
      .cls-1 {
        fill: #045c40;
      }
      .cls-2 {
        fill: #e6941d;
      }
    </style>
  </defs>
  <path class="cls-1" d="M137.5,675h75c6.91,0,12.5-5.59,12.5-12.5v-62.5c0-6.91-5.59-12.5-12.5-12.5h-75c-6.91,0-12.5,5.59-12.5,12.5v62.5c0,6.91,5.59,12.5,12.5,12.5ZM150,612.5h50v37.5h-50v-37.5Z"/>
  <path class="cls-1" d="M287.5,675h75c6.91,0,12.5-5.59,12.5-12.5v-62.5c0-6.91-5.59-12.5-12.5-12.5h-75c-6.91,0-12.5,5.59-12.5,12.5v62.5c0,6.91,5.59,12.5,12.5,12.5ZM300,612.5h50v37.5h-50v-37.5Z"/>
  <path class="cls-1" d="M437.5,675h75c6.91,0,12.5-5.59,12.5-12.5v-62.5c0-6.91-5.59-12.5-12.5-12.5h-75c-6.91,0-12.5,5.59-12.5,12.5v62.5c0,6.91,5.59,12.5,12.5,12.5ZM450,612.5h50v37.5h-50v-37.5Z"/>
  <path class="cls-1" d="M137.5,537.5h75c6.91,0,12.5-5.59,12.5-12.5v-62.5c0-6.91-5.59-12.5-12.5-12.5h-75c-6.91,0-12.5,5.59-12.5,12.5v62.5c0,6.91,5.59,12.5,12.5,12.5ZM150,475h50v37.5h-50v-37.5Z"/>
  <path class="cls-1" d="M287.5,537.5h75c6.91,0,12.5-5.59,12.5-12.5v-62.5c0-6.91-5.59-12.5-12.5-12.5h-75c-6.91,0-12.5,5.59-12.5,12.5v62.5c0,6.91,5.59,12.5,12.5,12.5ZM300,475h50v37.5h-50v-37.5Z"/>
  <path class="cls-2" d="M437.5,537.5h75c6.91,0,12.5-5.59,12.5-12.5v-62.5c0-6.91-5.59-12.5-12.5-12.5h-75c-6.91,0-12.5,5.59-12.5,12.5v62.5c0,6.91,5.59,12.5,12.5,12.5ZM450,475h50v37.5h-50v-37.5Z"/>
  <path class="cls-1" d="M587.5,537.5h75c6.91,0,12.5-5.59,12.5-12.5v-62.5c0-6.91-5.59-12.5-12.5-12.5h-75c-6.91,0-12.5,5.59-12.5,12.5v62.5c0,6.91,5.59,12.5,12.5,12.5ZM600,475h50v37.5h-50v-37.5Z"/>
  <path class="cls-1" d="M137.5,400h75c6.91,0,12.5-5.59,12.5-12.5v-62.5c0-6.91-5.59-12.5-12.5-12.5h-75c-6.91,0-12.5,5.59-12.5,12.5v62.5c0,6.91,5.59,12.5,12.5,12.5ZM150,337.5h50v37.5h-50v-37.5Z"/>
  <path class="cls-2" d="M287.5,400h75c6.91,0,12.5-5.59,12.5-12.5v-62.5c0-6.91-5.59-12.5-12.5-12.5h-75c-6.91,0-12.5,5.59-12.5,12.5v62.5c0,6.91,5.59,12.5,12.5,12.5ZM300,337.5h50v37.5h-50v-37.5Z"/>
  <path class="cls-1" d="M437.5,400h75c6.91,0,12.5-5.59,12.5-12.5v-62.5c0-6.91-5.59-12.5-12.5-12.5h-75c-6.91,0-12.5,5.59-12.5,12.5v62.5c0,6.91,5.59,12.5,12.5,12.5ZM450,337.5h50v37.5h-50v-37.5Z"/>
  <path class="cls-1" d="M587.5,400h75c6.91,0,12.5-5.59,12.5-12.5v-62.5c0-6.91-5.59-12.5-12.5-12.5h-75c-6.91,0-12.5,5.59-12.5,12.5v62.5c0,6.91,5.59,12.5,12.5,12.5ZM600,337.5h50v37.5h-50v-37.5Z"/>
  <path class="cls-1" d="M750,50h-87.5v-12.5c0-20.71-16.79-37.5-37.5-37.5s-37.5,16.79-37.5,37.5v12.5H212.5v-12.5c0-20.71-16.79-37.5-37.5-37.5s-37.5,16.79-37.5,37.5v12.5H50C22.36,50,0,72.36,0,100v650c0,27.64,22.36,50,50,50h700c27.64,0,50-22.36,50-50V100c0-27.64-22.36-50-50-50ZM612.5,37.5c0-6.91,5.59-12.5,12.5-12.5s12.5,5.59,12.5,12.5v87.5c0,6.91-5.59,12.5-12.5,12.5s-12.5-5.59-12.5-12.5V37.5ZM162.5,37.5c0-6.91,5.59-12.5,12.5-12.5s12.5,5.59,12.5,12.5v87.5c0,6.91-5.59,12.5-12.5,12.5s-12.5-5.59-12.5-12.5V37.5ZM775,750c0,13.8-11.2,25-25,25H50c-13.8,0-25-11.2-25-25V212.5h750v537.5ZM775,187.5H25v-87.5c0-13.8,11.2-25,25-25h87.5v50c0,20.71,16.79,37.5,37.5,37.5s37.5-16.79,37.5-37.5v-50h375v50c0,20.71,16.79,37.5,37.5,37.5s37.5-16.79,37.5-37.5v-50h87.5c13.8,0,25,11.2,25,25v87.5Z"/>
</svg>