<?xml version="1.0" encoding="UTF-8"?>
<svg id="Layer_1" data-name="Layer 1" xmlns="http://www.w3.org/2000/svg" viewBox="0 0 800 800">
  <defs>
    <style>
      .cls-1 {
        fill: #045c40;
      }
      .cls-2 {
        fill: #e6941d;
      }
      .cls-3 {
        fill: #fec819;
      }
    </style>
  </defs>
  <path class="cls-2" d="M425,387.5h362.5c6.91,0,12.5-5.59,12.5-12.5C800,167.9,632.1,0,425,0c-6.91,0-12.5,5.59-12.5,12.5v362.5c0,6.91,5.59,12.5,12.5,12.5Z"/>
  <path class="cls-3" d="M787.5,412.5h-337.5c-.55,0-1.03.24-1.56.3-1.05.14-2.1.24-3.1.62-.97.39-1.79,1.05-2.61,1.66-.45.34-.99.51-1.4.9-.02.02-.04.08-.06.1-1.07,1.05-1.9,2.31-2.54,3.69-.05.11-.17.2-.23.31-.2.47-.19,1.05-.33,1.56-.29,1.05-.64,2.11-.65,3.2l-.02.15c0,.66.27,1.25.39,1.9.15.93.2,1.85.55,2.74.44,1.1,1.15,2,1.86,2.91.26.35.39.79.71,1.11l.12.12s.02.04.05.05l248.97,256.33c67.88-67.86,109.84-161.61,109.84-265.16h0c0-6.91-5.59-12.5-12.5-12.5Z"/>
  <path class="cls-1" d="M395.19,428.64c-7.54-7.54-7.69-21.08-7.69-21.08V62.5c0-6.91-5.59-12.5-12.5-12.5C167.9,50,0,217.9,0,425s167.9,375,375,375c103.55,0,197.3-41.96,265.16-109.84,0,0-232.71-249.28-244.97-261.53Z"/>
</svg>