<?xml version="1.0" encoding="UTF-8"?>
<svg id="Layer_1" data-name="Layer 1" xmlns="http://www.w3.org/2000/svg" viewBox="0 0 800 800">
  <defs>
    <style>
      .cls-1 {
        fill: #045c40;
      }
    </style>
  </defs>
  <path class="cls-1" d="M400,0C179.09,0,0,179.09,0,400s179.09,400,400,400,400-179.09,400-400S620.91,0,400,0ZM400,775c-207.11,0-375-167.9-375-375S192.89,25,400,25s375,167.89,375,375-167.89,375-375,375Z"/>
  <circle class="cls-1" cx="400" cy="400" r="12.5"/>
  <path class="cls-1" d="M461.64,408.6c.39-2.84.86-5.65.86-8.6,0-20.39-9.9-38.3-25-49.73v-175.27c0-20.71-16.79-37.5-37.5-37.5s-37.5,16.79-37.5,37.5v175.27c-15.1,11.41-25,29.34-25,49.73,0,34.53,27.97,62.5,62.5,62.5,2.94,0,5.76-.47,8.6-.86l106.31,106.31c14.65,14.65,38.37,14.64,53.03-.01s14.65-38.37,0-53.03l-106.3-106.31ZM387.5,175c0-6.91,5.59-12.5,12.5-12.5s12.5,5.59,12.5,12.5v163.76c-4.04-.82-8.21-1.26-12.5-1.26s-8.46.44-12.5,1.26v-163.76ZM362.5,400c0-20.71,16.79-37.5,37.5-37.5s37.5,16.79,37.5,37.5-16.79,37.5-37.5,37.5-37.5-16.79-37.5-37.5ZM550.26,550.26c-4.89,4.9-12.79,4.9-17.68.01l-98.16-98.16c7.03-4.65,13.04-10.66,17.69-17.69l98.15,98.16c4.87,4.88,4.87,12.79,0,17.68Z"/>
  <path class="cls-1" d="M400,50c-193.3,0-350,156.7-350,350s156.7,350,350,350,350-156.7,350-350S593.3,50,400,50ZM638.44,620.75l-26.29-26.3c-4.91-4.87-12.81-4.87-17.69,0-4.89,4.9-4.89,12.79,0,17.69l26.3,26.3c-55.11,51.06-127.94,83.21-208.25,86.25v-37.17c-.01-6.91-5.6-12.5-12.49-12.5-6.93.01-12.5,5.59-12.5,12.5v37.17c-80.32-3.04-153.15-35.17-208.26-86.22l26.3-26.3c4.87-4.9,4.87-12.8,0-17.68-4.91-4.89-12.79-4.89-17.67,0l-26.3,26.3c-51.05-55.11-83.2-127.94-86.25-208.25h37.17c6.91-.01,12.5-5.6,12.5-12.5-.01-6.93-5.59-12.5-12.5-12.5h-37.2c3.04-80.31,35.17-153.15,86.23-208.26l26.3,26.3c4.89,4.89,12.79,4.89,17.67,0,4.89-4.9,4.89-12.79,0-17.67l-26.3-26.3c55.11-51.06,127.95-83.21,208.26-86.25v37.15c0,6.91,5.59,12.5,12.5,12.5s12.5-5.59,12.5-12.5v-37.19c80.31,3.04,153.15,35.17,208.26,86.24l-26.3,26.3c-4.89,4.89-4.89,12.79,0,17.67s12.79,4.89,17.68,0l26.31-26.3c51.05,55.11,83.2,127.95,86.24,208.26h-37.16c-6.91,0-12.5,5.59-12.5,12.5s5.59,12.5,12.5,12.5h37.19c-3.05,80.32-35.19,153.15-86.25,208.26Z"/>
</svg>