<?xml version="1.0" encoding="UTF-8"?>
<svg id="Layer_1" data-name="Layer 1" xmlns="http://www.w3.org/2000/svg" viewBox="0 0 666.67 600">
  <defs>
    <style>
      .cls-1 {
        fill: #045c40;
        fill-rule: evenodd;
      }
    </style>
  </defs>
  <path class="cls-1" d="M0,100C0,44.77,44.77,0,100,0h466.67c55.23,0,100,44.77,100,100v400c0,55.23-44.77,100-100,100H100c-55.23,0-100-44.77-100-100V100ZM100,66.67c-18.41,0-33.33,14.92-33.33,33.33v33.33h533.33v-33.33c0-18.41-14.92-33.33-33.33-33.33H100ZM66.67,500V200h533.33v300c0,18.41-14.92,33.33-33.33,33.33H100c-18.41,0-33.33-14.92-33.33-33.33ZM190.24,276.43c-13.02-13.02-34.12-13.02-47.14,0-13.02,13.02-13.02,34.12,0,47.14l43.1,43.1-43.1,43.1c-13.02,13.02-13.02,34.12,0,47.14,13.02,13.02,34.12,13.02,47.14,0l66.67-66.67c13.02-13.02,13.02-34.12,0-47.14l-66.67-66.67Z"/>
</svg>