<?xml version="1.0" encoding="UTF-8"?>
<svg id="Layer_1" data-name="Layer 1" xmlns="http://www.w3.org/2000/svg" viewBox="0 0 653.28 699.71">
  <defs>
    <style>
      .cls-1 {
        fill: #045c40;
      }

      .cls-2 {
        fill: #e6941d;
      }
    </style>
  </defs>
  <path class="cls-1" d="M326.56,105.8c-122.03,0-221.02,98.91-221.02,221.02,0,81.09,43.67,152.03,108.83,190.47v70.16c0,1.02,0,1.95.08,2.97.08,2.5.23,5,.47,7.5,5.31,56.87,53.59,101.8,111.8,101.8,30.86,0,58.91-12.66,79.3-32.97,17.97-17.97,29.92-42.03,32.5-68.67.23-2.5.39-5,.47-7.5,0-1.02.08-2.11.08-3.12v-70.31l.47-.23c64.77-38.52,108.2-109.22,108.2-190.08-.16-122.11-99.06-221.02-221.17-221.02ZM232.81,549.86h1.02-1.02ZM404.53,587.44c0,4.53-.39,8.98-1.17,13.28-.86,5.08-2.27,10-4.14,14.77-3.91,9.92-9.84,19.14-17.66,26.95-14.77,14.77-34.3,22.89-55,22.89s-40.23-8.13-55-22.89c-7.81-7.81-13.83-17.03-17.73-27.03-1.87-4.77-3.2-9.69-4.06-14.77-.78-4.3-1.09-8.75-1.09-13.2v-6.87h155.78v6.87h.08ZM404.53,568.07h-155.78v-37.27h155.78v37.27h0ZM458.52,458.77c-6.09,6.09-12.42,11.64-19.14,16.72-10.7,8.13-22.19,15.08-34.38,20.7l-.47.23v.08h-155.78c-12.03-5.55-23.36-12.27-33.91-20.16-7.11-5.31-13.83-11.17-20.23-17.58-17.19-17.19-30.63-37.11-40-59.3-9.77-22.97-14.69-47.42-14.69-72.66s4.92-49.61,14.69-72.66c9.38-22.19,22.89-42.19,40-59.38,17.19-17.19,37.11-30.63,59.38-40,22.97-9.69,47.42-14.61,72.66-14.61s49.69,4.92,72.66,14.61c22.19,9.38,42.19,22.89,59.38,40,17.19,17.19,30.63,37.11,40,59.38,9.69,22.97,14.69,47.42,14.69,72.66s-4.92,49.61-14.69,72.66c-9.53,22.19-22.97,42.11-40.16,59.3Z"/>
  <path class="cls-2" d="M326.56,287.6c-31.02,0-56.25,25.23-56.25,56.25,0,29.14,22.34,53.2,50.78,56.02v96.64h10.94v-96.64c28.44-2.73,50.78-26.8,50.78-56.02,0-31.02-25.23-56.25-56.25-56.25h0ZM326.56,387.6c-24.14,0-43.75-19.61-43.75-43.75s19.61-43.75,43.75-43.75,43.75,19.61,43.75,43.75-19.61,43.75-43.75,43.75h0Z"/>
  <path class="cls-2" d="M295.86,30.8c0,17,13.78,30.78,30.78,30.78s30.78-13.78,30.78-30.78C357.43,13.8,343.66.01,326.66,0s-30.79,13.76-30.8,30.76v.04h0Z"/>
  <path class="cls-2" d="M86.64,117.44c-.01,17,13.76,30.79,30.76,30.8s30.79-13.76,30.8-30.76v-.04c0-17-13.78-30.78-30.78-30.78s-30.78,13.78-30.78,30.78h0Z"/>
  <path class="cls-2" d="M0,326.58c0,17,13.78,30.78,30.78,30.78s30.78-13.78,30.78-30.78h0c0-17-13.78-30.78-30.78-30.78S0,309.58,0,326.58Z"/>
  <path class="cls-2" d="M591.72,326.58c-.01,17,13.76,30.79,30.76,30.8,17,.01,30.79-13.76,30.8-30.76v-.04c.01-17-13.76-30.79-30.76-30.8s-30.79,13.76-30.8,30.76v.04Z"/>
  <path class="cls-2" d="M505.08,117.44c-.01,17,13.76,30.79,30.76,30.8s30.79-13.76,30.8-30.76v-.04c.01-17-13.76-30.79-30.76-30.8s-30.79,13.76-30.8,30.76v.04Z"/>
</svg>