<?xml version="1.0" encoding="UTF-8"?>
<svg id="Layer_1" data-name="Layer 1" xmlns="http://www.w3.org/2000/svg" viewBox="0 0 574.38 574.39">
  <defs>
    <style>
      .cls-1 {
        fill: #045c40;
      }

      .cls-2 {
        fill: #e6941d;
      }

      .cls-3 {
        fill: #e6e6e6;
      }
    </style>
  </defs>
  <path class="cls-1" d="M288.76,574.38c-4.3,0-7.81-3.44-7.81-7.73s3.44-7.81,7.73-7.89c2.5,0,5.08-.08,7.58-.16,4.3-.16,7.89,3.2,8.05,7.58.16,4.3-3.2,7.89-7.58,8.05-2.5.08-5.23.16-7.97.16q.05,0,0,0h0ZM257.58,572.9c-.23,0-.55,0-.86-.08l-7.97-.94c-4.3-.55-7.27-4.53-6.72-8.75.55-4.3,4.53-7.27,8.75-6.72,2.5.31,5,.62,7.5.86,4.3.47,7.42,4.3,6.95,8.59-.31,4.06-3.67,7.03-7.66,7.03h0ZM327.66,571.49c-3.83,0-7.19-2.81-7.73-6.72-.62-4.3,2.34-8.2,6.64-8.83l7.5-1.17c4.22-.7,8.28,2.11,9.06,6.33s-2.11,8.28-6.33,9.06c-2.66.47-5.31.86-7.97,1.25-.39.08-.78.08-1.17.08h0ZM219.22,566.1c-.62,0-1.25-.08-1.87-.23-2.58-.62-5.16-1.33-7.73-2.03-4.14-1.17-6.56-5.47-5.39-9.61s5.47-6.56,9.61-5.39c2.42.7,4.92,1.33,7.34,1.95,4.22,1.02,6.72,5.31,5.7,9.45-1.02,3.52-4.22,5.86-7.66,5.86ZM365.79,563.13c-3.36,0-6.48-2.19-7.5-5.63-1.25-4.14,1.17-8.52,5.31-9.69,2.42-.7,4.84-1.48,7.27-2.27,4.14-1.33,8.52.94,9.84,5,1.33,4.14-.94,8.52-5,9.84-2.5.86-5.16,1.64-7.66,2.34-.78.31-1.48.39-2.27.39h0v.02ZM182.04,553.99c-1.02,0-1.95-.16-2.97-.55-2.5-1.02-5-2.03-7.42-3.12-3.98-1.72-5.78-6.33-3.98-10.31,1.72-3.98,6.33-5.78,10.31-3.98,2.34,1.02,4.69,2.03,7.03,2.97,3.98,1.64,5.94,6.17,4.3,10.16-1.25,3.05-4.14,4.84-7.27,4.84h0ZM402.43,549.61c-2.97,0-5.78-1.72-7.11-4.61-1.8-3.91-.08-8.59,3.91-10.31,2.27-1.02,4.61-2.11,6.87-3.2,3.91-1.88,8.59-.31,10.47,3.59s.31,8.59-3.59,10.47c-2.42,1.17-4.84,2.34-7.27,3.44-1.17.39-2.27.62-3.28.62h0ZM146.96,536.8c-1.33,0-2.66-.31-3.91-1.09-2.27-1.33-4.61-2.73-6.87-4.14-3.67-2.27-4.84-7.11-2.5-10.78,2.27-3.67,7.11-4.84,10.78-2.5,2.19,1.33,4.38,2.66,6.48,3.91,3.75,2.19,5,6.95,2.81,10.7-1.48,2.58-4.06,3.91-6.8,3.91h.01ZM436.72,531.02c-2.58,0-5.08-1.25-6.64-3.59-2.34-3.67-1.25-8.44,2.42-10.78,2.11-1.33,4.22-2.73,6.33-4.14,3.57-2.42,8.42-1.49,10.84,2.08,0,0,.01.02.02.03,2.42,3.57,1.49,8.42-2.08,10.84,0,0-.02.01-.03.02-2.19,1.48-4.45,2.97-6.72,4.37-1.33.78-2.73,1.17-4.14,1.17h0ZM114.69,514.93c-1.72,0-3.36-.55-4.84-1.64-2.11-1.64-4.22-3.36-6.25-5.08-3.28-2.73-3.75-7.66-1.02-11.02,2.73-3.28,7.66-3.75,11.02-1.02,1.95,1.64,3.91,3.2,5.94,4.77,3.36,2.66,3.98,7.58,1.33,10.94-1.56,2.03-3.91,3.05-6.17,3.05h-.01ZM468.05,507.9c-2.19,0-4.37-.94-5.94-2.73-2.81-3.28-2.42-8.2.86-11.02,1.95-1.64,3.83-3.28,5.7-5,3.2-2.89,8.13-2.66,11.02.55,2.89,3.2,2.66,8.13-.55,11.02-1.95,1.8-3.98,3.59-6.02,5.31-1.48,1.25-3.28,1.88-5.08,1.88h0ZM85.71,488.76c-2.03,0-4.06-.78-5.62-2.42-1.87-1.88-3.67-3.91-5.47-5.86-2.89-3.2-2.66-8.13.55-11.02,3.2-2.89,8.12-2.66,11.02.55,1.72,1.88,3.44,3.75,5.16,5.55,2.97,3.12,2.89,8.05-.23,11.02-1.48,1.48-3.44,2.19-5.39,2.19h-.02ZM495.94,480.63c-1.88,0-3.67-.62-5.16-1.95-3.2-2.89-3.52-7.81-.62-11.02,1.64-1.88,3.36-3.83,5-5.78,2.81-3.28,7.73-3.75,11.02-.94s3.75,7.73.94,11.02c-1.72,2.03-3.52,4.06-5.23,6.09-1.64,1.64-3.75,2.58-5.94,2.58h0ZM60.71,458.83c-2.42,0-4.77-1.09-6.33-3.2-1.56-2.19-3.12-4.37-4.61-6.56-2.42-3.59-1.56-8.44,2.03-10.86,3.59-2.42,8.44-1.56,10.86,2.03,1.41,2.11,2.89,4.14,4.38,6.17,2.5,3.52,1.72,8.36-1.72,10.94-1.41,1.02-3.05,1.48-4.61,1.48h0ZM519.85,449.69c-1.48,0-2.97-.39-4.3-1.33-3.59-2.42-4.53-7.27-2.19-10.86,1.41-2.11,2.81-4.22,4.14-6.41,2.27-3.67,7.11-4.77,10.78-2.5,3.67,2.27,4.77,7.11,2.5,10.78-1.41,2.27-2.89,4.53-4.37,6.72-1.56,2.42-4.06,3.59-6.56,3.59h0ZM40.01,425.79c-2.81,0-5.47-1.48-6.88-4.14-1.25-2.34-2.5-4.77-3.67-7.11-1.95-3.83-.31-8.52,3.52-10.47,3.91-1.95,8.52-.31,10.47,3.52,1.09,2.27,2.27,4.53,3.44,6.72,2.03,3.83.55,8.52-3.2,10.55-1.17.62-2.42.94-3.67.94h0ZM539.15,415.79c-1.17,0-2.27-.23-3.36-.78-3.91-1.88-5.55-6.56-3.67-10.39,1.09-2.27,2.19-4.61,3.2-6.87,1.8-3.91,6.41-5.7,10.31-3.98,3.91,1.8,5.7,6.41,3.98,10.31-1.09,2.42-2.19,4.92-3.36,7.27-1.41,2.81-4.22,4.45-7.11,4.45h0ZM24.22,390.08c-3.2,0-6.17-1.95-7.34-5.16-.94-2.5-1.8-5.08-2.66-7.58-1.33-4.06.86-8.52,5-9.84,4.06-1.33,8.52.86,9.84,5,.78,2.42,1.64,4.84,2.5,7.19,1.48,4.06-.63,8.52-4.69,10-.86.31-1.8.39-2.66.39h.01ZM553.52,379.46c-.78,0-1.56-.16-2.34-.39-4.14-1.33-6.41-5.7-5.08-9.84.78-2.42,1.48-4.84,2.19-7.27,1.17-4.14,5.55-6.56,9.69-5.39,4.14,1.17,6.56,5.55,5.39,9.69-.7,2.58-1.48,5.16-2.34,7.66-1.09,3.44-4.14,5.55-7.5,5.55h0ZM13.52,352.58c-3.59,0-6.88-2.5-7.66-6.17-.55-2.58-1.09-5.23-1.56-7.89-.78-4.22,2.03-8.28,6.33-9.06,4.22-.78,8.28,2.03,9.06,6.33.47,2.5.94,5,1.48,7.42.86,4.22-1.8,8.36-6.02,9.22-.55.08-1.09.16-1.64.16h0ZM562.66,341.57c-.39,0-.86,0-1.33-.08-4.22-.7-7.11-4.77-6.41-8.98l1.17-7.5c.62-4.3,4.53-7.27,8.83-6.64s7.27,4.53,6.64,8.83c-.39,2.66-.78,5.31-1.25,7.97-.55,3.67-3.91,6.41-7.66,6.41h0ZM8.21,313.91c-4.06,0-7.5-3.12-7.81-7.27-.16-2.66-.31-5.39-.39-8.05-.16-4.3,3.2-7.97,7.5-8.12,4.3-.16,7.97,3.2,8.12,7.5.08,2.5.23,5.08.39,7.58.31,4.3-2.97,8.05-7.27,8.28-.23.08-.39.08-.55.08h.01ZM566.49,302.74h-.23c-4.3-.16-7.73-3.67-7.58-8.05.08-2.5.08-5.08.08-7.58,0-4.3,3.52-7.81,7.81-7.81s7.81,3.52,7.81,7.81c0,2.66,0,5.39-.08,8.05-.16,4.22-3.59,7.58-7.81,7.58ZM8.29,274.93h-.55c-4.3-.31-7.58-4.06-7.27-8.36.16-2.66.39-5.31.7-7.97.39-4.3,4.22-7.42,8.52-7.03s7.42,4.22,7.03,8.52c-.23,2.5-.47,5.08-.63,7.58-.31,4.14-3.75,7.27-7.81,7.27h0ZM564.93,264.77c-3.91,0-7.34-2.97-7.73-6.95-.23-2.5-.55-5-.94-7.5-.55-4.3,2.42-8.2,6.72-8.83,4.3-.55,8.2,2.42,8.83,6.72.39,2.66.7,5.31.94,7.97.47,4.3-2.66,8.12-6.95,8.59h-.87ZM13.76,236.26c-.55,0-1.09-.08-1.64-.16-4.22-.94-6.88-5.08-6.02-9.3.55-2.66,1.17-5.23,1.8-7.81,1.02-4.22,5.23-6.8,9.45-5.78s6.8,5.23,5.78,9.45c-.63,2.42-1.17,4.92-1.72,7.42-.86,3.67-4.06,6.17-7.66,6.17h.01ZM558.05,226.33c-3.52,0-6.64-2.34-7.58-5.94-.62-2.42-1.25-4.92-1.95-7.34-1.17-4.14,1.25-8.44,5.39-9.61s8.44,1.25,9.61,5.39l2.11,7.73c1.09,4.22-1.48,8.44-5.7,9.45-.55.23-1.17.31-1.88.31h0ZM24.54,198.76c-.86,0-1.8-.16-2.66-.47-4.06-1.48-6.09-5.94-4.61-10,.94-2.5,1.87-5,2.89-7.5,1.56-3.98,6.17-5.94,10.16-4.38,3.99,1.56,5.94,6.17,4.38,10.16-.94,2.34-1.87,4.77-2.73,7.11-1.25,3.12-4.22,5.08-7.42,5.08h-.01ZM545.94,189.3c-3.05,0-6.02-1.8-7.27-4.84-.94-2.34-1.95-4.69-2.97-6.95-1.72-3.98.08-8.59,3.98-10.31,3.98-1.72,8.59.08,10.31,3.98,1.09,2.42,2.11,4.92,3.12,7.34,1.64,3.98-.31,8.59-4.3,10.16-.94.39-1.95.62-2.89.62h.02ZM40.55,163.13c-1.25,0-2.5-.31-3.67-.94-3.83-2.03-5.23-6.8-3.2-10.55,1.25-2.34,2.58-4.77,3.91-7.03,2.11-3.75,6.95-5.08,10.63-2.89,3.75,2.11,5.08,6.95,2.89,10.63-1.25,2.19-2.5,4.45-3.67,6.64-1.41,2.66-4.14,4.14-6.88,4.14h0ZM528.68,154.3c-2.66,0-5.31-1.41-6.72-3.91-1.25-2.19-2.58-4.38-3.91-6.48-2.27-3.67-1.17-8.52,2.5-10.78s8.52-1.17,10.78,2.5c1.41,2.27,2.81,4.53,4.14,6.87,2.19,3.75.94,8.52-2.81,10.7-1.25.78-2.66,1.09-3.98,1.09h0ZM61.33,130.08c-1.56,0-3.2-.47-4.61-1.48-3.52-2.58-4.22-7.42-1.72-10.94,1.56-2.19,3.2-4.3,4.84-6.41,2.66-3.44,7.58-4.06,10.94-1.41,3.44,2.66,4.06,7.58,1.41,10.94-1.56,1.95-3.05,3.98-4.53,6.09-1.56,2.11-3.91,3.2-6.33,3.2h0ZM506.72,122.04c-2.34,0-4.61-1.02-6.17-2.97s-3.12-3.98-4.77-5.86c-2.73-3.28-2.34-8.2,1.02-11.02,3.28-2.73,8.2-2.34,11.02,1.02,1.72,2.03,3.44,4.14,5.08,6.25,2.66,3.36,2.11,8.28-1.33,10.94-1.41,1.09-3.12,1.64-4.84,1.64h0ZM86.49,100.24c-1.95,0-3.91-.7-5.47-2.19-3.12-2.97-3.2-7.97-.16-11.02,1.87-1.87,3.75-3.83,5.7-5.7,3.12-3.05,8.05-2.97,11.02.16,3.05,3.12,2.97,8.05-.16,11.02l-5.39,5.39c-1.48,1.56-3.52,2.34-5.55,2.34h.01ZM480.47,93.21c-1.95,0-3.91-.7-5.39-2.19-1.8-1.72-3.67-3.52-5.55-5.16-3.2-2.89-3.44-7.81-.55-11.02s7.81-3.44,11.02-.55c1.95,1.8,3.98,3.67,5.86,5.47,3.12,2.97,3.2,7.97.23,11.02-1.48,1.56-3.52,2.42-5.63,2.42h.01ZM115.55,74.22c-2.34,0-4.61-1.02-6.17-3.05-2.66-3.44-2.03-8.28,1.33-10.94,2.11-1.64,4.22-3.28,6.41-4.84,3.52-2.58,8.36-1.8,10.94,1.64,2.58,3.52,1.8,8.36-1.64,10.94-2.03,1.48-4.06,3.05-6.02,4.61-1.48,1.09-3.2,1.64-4.84,1.64h-.01ZM450.55,68.21c-1.56,0-3.2-.47-4.53-1.48-2.03-1.48-4.14-2.97-6.25-4.38-3.59-2.42-4.45-7.27-2.03-10.86s7.27-4.45,10.86-2.03c2.19,1.48,4.45,3.05,6.56,4.61,3.52,2.5,4.3,7.42,1.8,10.94-1.64,2.03-3.98,3.2-6.41,3.2h0ZM147.9,52.43c-2.73,0-5.31-1.41-6.8-3.91-2.19-3.75-.86-8.52,2.89-10.7,2.34-1.33,4.69-2.66,7.03-3.91,3.83-2.03,8.52-.63,10.55,3.2s.62,8.52-3.2,10.55c-2.19,1.17-4.45,2.42-6.64,3.67-1.17.78-2.5,1.09-3.83,1.09h0ZM417.35,47.58c-1.25,0-2.5-.31-3.67-.94-2.27-1.17-4.53-2.34-6.8-3.44-3.91-1.87-5.47-6.56-3.59-10.47s6.56-5.47,10.47-3.59c2.42,1.17,4.77,2.42,7.19,3.67,3.83,2.03,5.31,6.72,3.28,10.55-1.33,2.73-4.06,4.22-6.87,4.22h-.01ZM182.97,35.47c-3.12,0-6.02-1.87-7.27-4.92-1.64-3.98.31-8.52,4.38-10.16,2.5-1.02,5-1.95,7.5-2.89,4.06-1.48,8.52.55,10,4.61s-.55,8.52-4.61,10c-2.34.86-4.77,1.8-7.11,2.73-.94.39-1.87.63-2.89.63ZM381.65,31.8c-.86,0-1.8-.16-2.66-.47-2.42-.86-4.84-1.72-7.19-2.5-4.06-1.33-6.33-5.78-5-9.84s5.78-6.33,9.84-5c2.5.86,5.08,1.72,7.66,2.66,4.06,1.48,6.17,5.94,4.69,10-1.17,3.2-4.14,5.16-7.34,5.16h0ZM220.16,23.44c-3.52,0-6.72-2.42-7.58-5.94-1.02-4.22,1.56-8.44,5.7-9.45,2.58-.63,5.23-1.25,7.81-1.8,4.22-.94,8.36,1.8,9.3,6.02.94,4.22-1.8,8.36-6.02,9.3-2.42.55-4.92,1.09-7.42,1.72-.55.16-1.25.16-1.8.16h.01ZM344.07,21.26c-.55,0-1.09-.08-1.56-.16-2.42-.55-5-1.02-7.42-1.41-4.22-.78-7.11-4.84-6.33-9.06.78-4.22,4.84-7.11,9.06-6.33,2.66.47,5.31,1.02,7.89,1.48,4.22.86,6.95,5,6.09,9.22-.86,3.67-4.14,6.25-7.73,6.25h0ZM258.6,16.88c-3.98,0-7.34-2.97-7.73-7.03-.47-4.3,2.66-8.12,6.95-8.59l7.97-.7c4.3-.31,8.05,2.89,8.36,7.19.31,4.3-2.89,8.05-7.19,8.36-2.5.16-5.08.39-7.58.63-.31.08-.55.16-.78.16v-.02ZM305.4,16.02h-.55c-2.5-.16-5.08-.31-7.58-.39-4.3-.16-7.66-3.75-7.5-8.12.16-4.3,3.75-7.66,8.13-7.5,2.66.08,5.39.23,8.05.39,4.3.31,7.58,3.98,7.27,8.28-.31,4.14-3.75,7.34-7.81,7.34h-.01Z"/>
  <path class="cls-3" d="M493.83,82.19c-11.64,0-21.09,9.45-21.09,21.09s9.45,21.09,21.09,21.09,21.09-9.45,21.09-21.09-9.45-21.09-21.09-21.09Z"/>
  <path class="cls-1" d="M493.83,66.57c-20.23,0-36.72,16.48-36.72,36.72s16.48,36.72,36.72,36.72,36.72-16.48,36.72-36.72-16.48-36.72-36.72-36.72ZM472.66,103.29c0-11.64,9.45-21.09,21.09-21.09s21.09,9.45,21.09,21.09-9.45,21.09-21.09,21.09-21.09-9.45-21.09-21.09h0Z"/>
  <path class="cls-2" d="M451.57,209.61H122.51c-2.42,5.08-4.61,10.31-6.48,15.62h342.11c-1.95-5.31-4.14-10.55-6.56-15.62h0Z"/>
  <path class="cls-1" d="M437.74,136.41c-40.23-40.23-93.75-62.42-150.7-62.42s-110.47,22.19-150.7,62.42-62.42,93.75-62.42,150.7,22.19,110.47,62.42,150.7,93.75,62.42,150.7,62.42,110.47-22.19,150.7-62.42,62.42-93.75,62.42-150.7-22.11-110.47-62.42-150.7h0ZM124.54,368.6h68.05c.86,2.5,1.8,5,2.73,7.5,8.59,22.19,20.55,43.44,35.47,63.12,7.97,10.47,15.86,19.37,23.05,26.64-56.64-10.47-104.14-47.27-129.3-97.27h0ZM279.22,468.36c-9.38-8.13-22.97-21.25-36.41-39.06-11.48-15.23-24.14-35.62-33.59-60.78h70v99.84ZM294.85,468.36v-99.77h70c-9.45,25.08-22.11,45.55-33.59,60.78-13.44,17.81-27.03,30.86-36.41,38.98h0ZM320.32,465.94c7.19-7.34,15.08-16.17,23.05-26.64,15-19.77,26.95-40.94,35.47-63.12.94-2.5,1.88-5,2.73-7.5h68.05c-25.16,49.92-72.66,86.72-129.3,97.27h0ZM456.57,352.97h-70.16c5.7-20.7,8.59-42.11,8.59-63.91s-2.89-43.05-8.52-63.91h-16.33c5.63,19.22,9.14,40.55,9.14,63.91s-3.59,44.84-9.22,63.91h-75.23v-127.73h-15.62v127.73h-75.23c-5.63-19.06-9.22-40.39-9.22-63.91s3.59-44.69,9.14-63.91h-16.33c-5.63,20.86-8.52,42.27-8.52,63.91s2.89,43.13,8.59,63.91h-70.16c-7.97-20.47-12.34-42.66-12.34-65.86,0-21.72,3.83-42.58,10.86-61.88,1.95-5.31,4.14-10.55,6.48-15.62,24.77-52.34,73.83-91.09,132.58-101.56-7.5,7.89-15.94,17.5-24.38,28.98-14.92,20.31-26.87,42.03-35.47,64.45-1.02,2.66-1.95,5.39-2.89,8.12h16.64c9.53-25.78,22.34-47.03,33.91-62.89,13.44-18.28,26.95-31.87,36.33-40.39v103.28h15.62v-103.28c9.38,8.52,22.89,22.19,36.33,40.39,11.64,15.86,24.45,37.03,33.91,62.89h16.64c-.94-2.73-1.88-5.39-2.89-8.12-8.59-22.5-20.47-44.14-35.47-64.45-8.36-11.48-16.8-21.17-24.3-28.98,58.75,10.47,107.81,49.22,132.58,101.56,2.42,5.08,4.61,10.31,6.48,15.62,7.03,19.3,10.86,40.16,10.86,61.88-.08,23.2-4.45,45.47-12.42,65.86h.02Z"/>
</svg>