<?xml version="1.0" encoding="UTF-8"?>
<svg id="Layer_1" data-name="Layer 1" xmlns="http://www.w3.org/2000/svg" viewBox="0 0 800 800">
  <defs>
    <style>
      .cls-1 {
        fill: #045c40;
      }
    </style>
  </defs>
  <path class="cls-1" d="M750,0H175c-27.64,0-50,22.36-50,50v337.5H50c-27.64,0-50,22.36-50,50v287.5c0,41.41,33.59,75,75,75h650c41.41,0,75-33.59,75-75V50c0-27.64-22.36-50-50-50ZM25,725v-287.5c0-13.8,11.2-25,25-25h75v312.5c0,27.61-22.39,50-50,50s-50-22.39-50-50ZM725,775H130.79c11.91-13.28,19.21-30.76,19.21-50V50c0-13.8,11.2-25,25-25h575c13.8,0,25,11.2,25,25v675c0,27.61-22.39,50-50,50Z"/>
  <path class="cls-1" d="M662.5,312.5h-400c-6.91,0-12.5,5.59-12.5,12.5s5.59,12.5,12.5,12.5h400c6.91,0,12.5-5.59,12.5-12.5s-5.59-12.5-12.5-12.5Z"/>
  <path class="cls-1" d="M662.5,237.5h-400c-6.91,0-12.5,5.59-12.5,12.5s5.59,12.5,12.5,12.5h400c6.91,0,12.5-5.59,12.5-12.5s-5.59-12.5-12.5-12.5Z"/>
  <path class="cls-1" d="M662.5,462.5h-400c-6.91,0-12.5,5.59-12.5,12.5s5.59,12.5,12.5,12.5h400c6.91,0,12.5-5.59,12.5-12.5s-5.59-12.5-12.5-12.5Z"/>
  <path class="cls-1" d="M662.5,537.5h-400c-6.91,0-12.5,5.59-12.5,12.5s5.59,12.5,12.5,12.5h400c6.91,0,12.5-5.59,12.5-12.5s-5.59-12.5-12.5-12.5Z"/>
  <path class="cls-1" d="M662.5,612.5h-400c-6.91,0-12.5,5.59-12.5,12.5s5.59,12.5,12.5,12.5h400c6.91,0,12.5-5.59,12.5-12.5s-5.59-12.5-12.5-12.5Z"/>
  <path class="cls-1" d="M662.5,387.5h-400c-6.91,0-12.5,5.59-12.5,12.5s5.59,12.5,12.5,12.5h400c6.91,0,12.5-5.59,12.5-12.5s-5.59-12.5-12.5-12.5Z"/>
  <path class="cls-1" d="M262.5,187.5h187.5c6.91,0,12.5-5.59,12.5-12.5s-5.59-12.5-12.5-12.5h-187.5c-6.91,0-12.5,5.59-12.5,12.5s5.59,12.5,12.5,12.5Z"/>
</svg>