<?xml version="1.0" encoding="UTF-8"?>
<svg id="Layer_1" data-name="Layer 1" xmlns="http://www.w3.org/2000/svg" viewBox="0 0 700 800">
  <defs>
    <style>
      .cls-1 {
        fill: #045c40;
      }
    </style>
  </defs>
  <polygon class="cls-1" points="525 7.33 525 175 692.68 175 525 7.33"/>
  <path class="cls-1" d="M512.5,200c-6.91,0-12.5-5.59-12.5-12.5V0H50C22.36,0,0,22.36,0,50v700c0,27.64,22.36,50,50,50h600c27.64,0,50-22.36,50-50V200h-187.5ZM137.5,225h200c6.91,0,12.5,5.59,12.5,12.5s-5.59,12.5-12.5,12.5h-200c-6.91,0-12.5-5.59-12.5-12.5s5.59-12.5,12.5-12.5ZM562.5,637.5H137.5c-6.91,0-12.5-5.59-12.5-12.5s5.59-12.5,12.5-12.5h425c6.91,0,12.5,5.59,12.5,12.5s-5.59,12.5-12.5,12.5ZM562.5,562.5H137.5c-6.91,0-12.5-5.59-12.5-12.5s5.59-12.5,12.5-12.5h425c6.91,0,12.5,5.59,12.5,12.5s-5.59,12.5-12.5,12.5ZM562.5,487.5H137.5c-6.91,0-12.5-5.59-12.5-12.5s5.59-12.5,12.5-12.5h425c6.91,0,12.5,5.59,12.5,12.5s-5.59,12.5-12.5,12.5ZM562.5,412.5H137.5c-6.91,0-12.5-5.59-12.5-12.5s5.59-12.5,12.5-12.5h425c6.91,0,12.5,5.59,12.5,12.5s-5.59,12.5-12.5,12.5ZM562.5,337.5H137.5c-6.91,0-12.5-5.59-12.5-12.5s5.59-12.5,12.5-12.5h425c6.91,0,12.5,5.59,12.5,12.5s-5.59,12.5-12.5,12.5Z"/>
</svg>