<?xml version="1.0" encoding="UTF-8"?>
<svg id="Layer_1" data-name="Layer 1" xmlns="http://www.w3.org/2000/svg" viewBox="0 0 627.65 574.72">
  <defs>
    <style>
      .cls-1 {
        fill: #045c40;
      }

      .cls-2 {
        fill: #e6941d;
      }

      .cls-3 {
        fill: #06f3ff;
      }
    </style>
  </defs>
  <path class="cls-1" d="M450.47,74.69c0,12.38,9.44,22.42,21.09,22.42s21.09-10.04,21.09-22.42-9.44-22.42-21.09-22.42-21.09,10.04-21.09,22.42Z"/>
  <path class="cls-1" d="M450.47,250.78c0,12.38,9.44,22.42,21.09,22.42s21.09-10.04,21.09-22.42-9.44-22.42-21.09-22.42-21.09,10.04-21.09,22.42h0Z"/>
  <path class="cls-1" d="M262.73,82.5H75.7c-4.3,0-7.81-3.52-7.81-7.81s3.52-7.81,7.81-7.81h187.03c4.3,0,7.81,3.52,7.81,7.81s-3.52,7.81-7.81,7.81h0ZM471.56,97.19c-11.64,0-21.09-10.08-21.09-22.42s9.45-22.42,21.09-22.42,21.09,10.08,21.09,22.42-9.45,22.42-21.09,22.42ZM471.56,273.2c-11.64,0-21.09-10.08-21.09-22.42s9.45-22.42,21.09-22.42,21.09,10.08,21.09,22.42-9.45,22.42-21.09,22.42Z"/>
  <path class="cls-1" d="M518.83,0H54.69C24.53,0,0,24.53,0,54.69v40.08c0,30.16,24.53,54.69,54.69,54.69h464.14c30.16,0,54.69-24.53,54.69-54.69v-40.08C573.52,24.53,548.99,0,518.83,0ZM542.27,94.77c0,12.89-10.55,23.44-23.44,23.44H54.69c-12.89,0-23.44-10.55-23.44-23.44v-40.08c0-12.89,10.55-23.44,23.44-23.44h464.14c12.89,0,23.44,10.55,23.44,23.44v40.08Z"/>
  <path class="cls-1" d="M262.73,66.87H75.7c-4.3,0-7.81,3.52-7.81,7.81s3.52,7.81,7.81,7.81h187.03c4.3,0,7.81-3.52,7.81-7.81s-3.52-7.81-7.81-7.81h0Z"/>
  <path class="cls-1" d="M359.06,485.94c-2.42-3.59-4.61-7.34-6.64-11.17l-17.5.47h-.78c-5,0-10-1.17-14.45-3.52-.86-.39-1.64-.86-2.42-1.41H54.69c-12.89,0-23.44-10.55-23.44-23.44v-40.08c0-12.89,10.55-23.44,23.44-23.44h257.42c1.48-1.09,3.12-2.03,4.84-2.81,3.75-1.72,7.81-2.66,12.03-2.73l16.64-.47c.31-.86.62-1.64.94-2.5,1.33-3.28,2.73-6.56,4.37-9.61,1.95-3.83,4.22-7.66,6.72-11.41l-1.17-1.8H54.69c-30.16,0-54.69,24.53-54.69,54.69v40.08c0,30.16,24.53,54.69,54.69,54.69h312.27l1.56-3.05c-3.44-3.91-6.56-8.13-9.45-12.5h0Z"/>
  <path class="cls-1" d="M627.58,436.64l-2.73-36.95c-.39-5.39-2.27-10.62-5.39-15.16-2.97-4.3-7.03-7.81-11.64-10.16-4.45-2.27-9.45-3.52-14.45-3.52h-.78l-17.5.47c-4.45-8.44-9.84-16.41-16.09-23.75l7.19-13.98c1.88-3.67,2.97-7.66,3.2-11.8.23-3.91-.39-7.81-1.72-11.56-1.02-2.81-2.42-5.47-4.14-7.89,6.33-8.91,10-19.77,10-31.48v-40.08c0-30.16-24.53-54.69-54.69-54.69H54.69c-30.16,0-54.69,24.53-54.69,54.69v40.08c0,30.16,24.53,54.69,54.69,54.69h288.36c.08,1.09.23,2.11.47,3.2.78,4.06,2.42,7.89,4.77,11.33l8.2,12.03,1.17,1.8c-2.5,3.75-4.77,7.5-6.72,11.41-1.56,3.05-3.05,6.33-4.37,9.61-.31.86-.62,1.64-.94,2.5l-16.64.47c-4.22.08-8.28,1.02-12.03,2.73-1.72.78-3.36,1.72-4.84,2.81-1.72,1.25-3.36,2.66-4.77,4.3-5.39,6.02-8.05,13.75-7.42,21.8l2.73,36.95c.39,5.39,2.27,10.62,5.39,15.16,2.42,3.52,5.63,6.48,9.22,8.83.78.47,1.56.94,2.42,1.41,4.45,2.27,9.45,3.52,14.45,3.52h.78l17.5-.47c2.03,3.83,4.22,7.58,6.64,11.17,2.89,4.37,6.02,8.52,9.45,12.58l-1.56,3.05-5.63,10.94c-1.88,3.67-2.97,7.66-3.2,11.8-.23,3.91.39,7.81,1.72,11.56,2.66,7.58,8.13,13.75,15.39,17.5l34.38,17.66c4.53,2.27,9.53,3.52,14.45,3.52,2.97,0,5.86-.39,8.67-1.25,3.83-1.09,7.34-2.97,10.39-5.39,3.2-2.58,5.86-5.78,7.73-9.45l7.19-13.98c3.59.31,7.19.47,10.78.47,6.02,0,11.95-.39,17.89-1.25l9.84,14.45c2.97,4.37,7.03,7.97,11.8,10.39,4.45,2.27,9.53,3.52,14.53,3.52h.55c5.47-.08,10.78-1.64,15.39-4.45l31.64-19.37c6.95-4.22,11.64-10.94,13.36-18.83.86-3.91.86-7.97.08-11.95-.78-4.06-2.42-7.89-4.77-11.33l-9.38-13.75c2.5-3.75,4.77-7.5,6.72-11.41,1.95-3.83,3.75-7.89,5.31-12.11l16.64-.47c4.22-.08,8.28-1.02,12.03-2.73,3.67-1.72,6.95-4.06,9.61-7.03,5.47-6.25,8.13-13.98,7.5-22.11h0l.02-.05ZM31.25,270.86v-40.08c0-12.89,10.55-23.44,23.44-23.44h464.14c12.89,0,23.44,10.55,23.44,23.44v40.08c0,5.39-1.8,10.31-4.84,14.3l-19.53-10c-4.53-2.27-9.53-3.52-14.45-3.52-2.97,0-5.86.39-8.67,1.25-3.83,1.09-7.34,2.97-10.39,5.39-3.2,2.58-5.86,5.78-7.73,9.45l-3.36,6.56h-38.12l-4.22-6.17c-2.97-4.38-7.03-7.97-11.8-10.39-4.53-2.27-9.53-3.52-14.53-3.52h-.55c-5.47.08-10.78,1.64-15.39,4.45l-25.55,15.62H54.69c-12.89,0-23.44-10.55-23.44-23.44v.02ZM600.7,440.94c-.7.78-1.64,1.17-2.89,1.17l-24.3.62-11.25.31-2.66,9.3c-.55,1.88-1.09,3.75-1.72,5.55-1.33,3.83-2.89,7.58-4.69,11.02-2.58,5.08-5.86,10.08-9.69,14.92l-.39.47-5.63,7.03,3.67,5.47,16.33,23.98c.47.7.94,1.8.7,3.05-.16.78-.7,1.48-1.41,1.95l-31.64,19.3c-.62.39-1.41.62-2.27.62s-1.72-.23-2.58-.62-1.56-1.02-2.03-1.8l-19.61-28.75-8.67,1.88c-6.95,1.48-14.06,2.27-21.17,2.27-5.39,0-10.86-.47-16.25-1.25l-9.38-1.48-15.7,30.63c-.55,1.09-1.88,1.8-3.44,1.8-.86,0-1.72-.23-2.5-.62l-34.38-17.66c-1.25-.62-2.11-1.64-2.58-2.73-.23-.55-.47-1.72.08-2.81l11.72-22.89,3.98-7.73-6.72-6.72c-.39-.39-.78-.78-1.09-1.17-4.69-4.84-8.83-10.08-12.34-15.62-2.89-4.53-5.47-9.22-7.58-14.14l-3.52-8.13-34.92.94c-.86,0-1.72-.23-2.5-.62-1.64-.86-2.73-2.34-2.81-3.91l-2.73-36.95c-.08-.86.16-1.64.78-2.27.7-.78,1.64-1.17,2.89-1.17l35.55-.94,2.58-9.3c1.02-3.59,2.19-7.11,3.59-10.39.86-2.11,1.8-4.14,2.81-6.17.39-.78.86-1.56,1.25-2.34,2.34-4.3,5.23-8.52,8.44-12.58l6.02-7.58-1.8-2.66-18.13-26.56-.16-.16c-.7-1.02-.94-2.03-.7-3.05.16-.78.7-1.48,1.41-1.95l31.64-19.37c.62-.39,1.41-.62,2.27-.62s1.72.23,2.58.62,1.56,1.02,2.03,1.8l15.47,22.66,4.14,6.09,8.67-1.88c6.95-1.48,14.06-2.27,21.17-2.27,5.39,0,10.86.47,16.25,1.25l9.38,1.48,2.42-4.77,13.28-25.86c.55-1.09,1.88-1.8,3.44-1.8.86,0,1.72.23,2.5.62l34.38,17.66c1.56.78,2.66,2.27,2.81,3.75.08.62,0,1.25-.31,1.8l-15.7,30.63.62.62,6.09,6.17c6.72,6.8,12.34,14.22,16.8,22.34,1.56,2.81,2.97,5.63,4.22,8.59l2.97,6.8.55,1.33,14.38-.39,20.63-.55c.86,0,1.72.23,2.5.62,1.64.86,2.73,2.34,2.81,3.91l2.73,36.95c.08.86-.16,1.64-.7,2.27h.01Z"/>
  <path class="cls-3" d="M454.69,352.11h10.39c-3.52-.23-6.95-.23-10.39,0Z"/>
  <path class="cls-2" d="M530.86,401.88c-2.27-6.56-5.55-12.73-9.53-18.36-1.56-2.19-3.2-4.22-5-6.25-.7-.78-1.48-1.64-2.27-2.42-5.7-5.86-12.34-10.78-19.77-14.61-8.36-4.3-17.34-6.95-26.64-7.97l-2.58-.23h-10.39c-5.23.39-10.39,1.25-15.47,2.81-9.3,2.73-17.66,7.19-24.92,13.2-2.5,2.11-4.84,4.37-7.03,6.72-2.42,2.66-4.53,5.47-6.48,8.52-1.17,1.88-2.34,3.83-3.36,5.78-4.14,8.13-6.56,16.87-7.27,26.02-.7,9.45.62,18.83,3.83,27.97,3.2,9.06,8.05,17.34,14.53,24.61.78.94,1.64,1.8,2.5,2.66,5.7,5.78,12.27,10.62,19.53,14.38.86.47,1.72.86,2.66,1.25,7.66,3.52,15.7,5.78,23.98,6.72,9.61,1.02,19.22.16,28.44-2.58,3.75-1.09,7.27-2.5,10.7-4.14,5.08-2.42,9.84-5.47,14.22-9.14,2.42-2.03,4.69-4.22,6.8-6.48,3.98-4.37,7.34-9.22,10.08-14.53,4.14-8.13,6.56-16.87,7.27-26.02.7-9.38-.62-18.75-3.83-27.89h0v-.02ZM518.36,428.67c-.47,6.87-2.34,13.52-5.47,19.69s-7.42,11.48-12.73,15.94c-2.81,2.34-5.86,4.37-9.14,6.09-3.12,1.64-6.41,2.97-9.92,3.98-7.19,2.11-14.61,2.81-22.11,1.95-7.11-.78-13.91-2.81-20.39-6.02-.16-.08-.31-.16-.55-.23-6.56-3.36-12.42-7.89-17.27-13.28-5-5.63-8.83-12.03-11.25-19.06s-3.44-14.22-2.89-21.41c.47-6.87,2.34-13.52,5.47-19.69,2.58-5,5.86-9.45,9.84-13.28.94-.94,1.88-1.8,2.89-2.66,2.66-2.27,5.63-4.22,8.67-5.86,3.28-1.72,6.72-3.2,10.39-4.3,7.19-2.11,14.61-2.81,22.11-1.95,7.27.78,14.3,2.89,20.86,6.25,4.53,2.34,8.67,5.16,12.42,8.52,1.72,1.48,3.36,3.12,4.84,4.84,5,5.63,8.83,12.03,11.25,19.06,2.5,7.03,3.44,14.22,2.97,21.41h.01Z"/>
</svg>