<?xml version="1.0" encoding="UTF-8"?>
<svg id="Layer_1" data-name="Layer 1" xmlns="http://www.w3.org/2000/svg" viewBox="0 0 550 800">
  <defs>
    <style>
      .cls-1 {
        fill: #045c40;
      }

      .cls-2 {
        fill: #e6941d;
      }
    </style>
  </defs>
  <path class="cls-1" d="M550,275C550,123.36,426.64,0,275,0S0,123.36,0,275c0,85.2,38.96,161.5,100,211.98v288.02c0,9.47,5.35,18.13,13.81,22.36,3.54,1.77,7.36,2.64,11.16,2.64,5.33,0,10.6-1.7,15.02-5l135-101.25,135,101.25c4.43,3.31,9.69,5,15,5,3.81,0,7.64-.86,11.19-2.64,8.46-4.24,13.81-12.89,13.81-22.36v-288.02c61.04-50.48,100-126.78,100-211.98ZM125,775v-269.69c8.06,5.26,16.4,10.11,25,14.51v236.43l-25,18.75ZM275,662.5l-100,75v-206.41c31.01,12.16,64.72,18.91,100,18.91s68.99-6.75,100-18.91v206.41l-100-75ZM425,775l-25-18.75v-236.43c8.6-4.41,16.94-9.25,25-14.51v269.69ZM275,525c-137.85,0-250-112.15-250-250S137.15,25,275,25s250,112.15,250,250-112.15,250-250,250Z"/>
  <path class="cls-1" d="M275,50c-124.06,0-225,100.94-225,225s100.94,225,225,225,225-100.94,225-225S399.06,50,275,50ZM275,475c-110.27,0-200-89.72-200-200s89.72-200,200-200,200,89.72,200,200-89.73,200-200,200Z"/>
  <path class="cls-2" d="M364.34,242.01l-53.86-8.23-24.2-51.54c-2.06-4.4-6.48-7.19-11.31-7.19s-9.25,2.8-11.31,7.19l-24.2,51.54-53.86,8.23c-4.63.71-8.47,3.94-9.96,8.39s-.36,9.34,2.9,12.7l39.32,40.34-9.31,57.05c-.78,4.73,1.24,9.47,5.14,12.24s9.06,3.04,13.26.73l48.01-26.55,48.01,26.55c1.91,1.04,4,1.55,6.08,1.55,2.52,0,5.05-.78,7.2-2.29,3.9-2.76,5.91-7.51,5.14-12.24l-9.31-57.05,39.32-40.34c3.28-3.36,4.4-8.25,2.9-12.7s-5.31-7.66-9.95-8.37ZM309.76,290.49c-2.78,2.85-4.02,6.82-3.39,10.74l6.19,37.86-31.52-17.44c-1.89-1.04-3.96-1.56-6.05-1.56s-4.16.52-6.05,1.56l-31.52,17.44,6.19-37.86c.64-3.91-.62-7.9-3.39-10.74l-26.76-27.43,36.41-5.56c4.11-.62,7.65-3.26,9.42-7.04l15.71-33.47,15.71,33.47c1.77,3.79,5.31,6.42,9.43,7.04l36.41,5.56-26.79,27.43Z"/>
</svg>