<?xml version="1.0" encoding="UTF-8"?>
<svg id="Layer_1" data-name="Layer 1" xmlns="http://www.w3.org/2000/svg" viewBox="0 0 666.67 637.63">
  <defs>
    <style>
      .cls-1 {
        fill: #045c40;
      }

      .cls-2 {
        fill: #e6941d;
      }
    </style>
  </defs>
  <path class="cls-1" d="M500,533.33h-133.33l-148.33,98.67c-22,14.67-51.67-1-51.67-27.67v-71C66.67,533.33,0,466.67,0,366.67v-200C0,66.67,66.67,0,166.67,0h333.33c100,0,166.67,66.67,166.67,166.67v200c0,100-66.67,166.67-166.67,166.67Z"/>
  <path class="cls-2" d="M333.33,322.67c-13.67,0-25-11.33-25-25v-7c0-38.67,28.33-57.67,39-65,12.33-8.33,16.33-14,16.33-22.67,0-16.67-13.67-30.33-30.33-30.33s-30.33,13.67-30.33,30.33c0,13.67-11.33,25-25,25s-25-11.33-25-25c0-44.33,36-80.33,80.33-80.33s80.33,36,80.33,80.33c0,38-28,57-38.33,64-13,8.67-17,14.33-17,23.67v7c0,14-11.33,25-25,25Z"/>
  <path class="cls-2" d="M333.33,405.67c-14,0-25-11.33-25-25s11.33-25,25-25,25,11.33,25,25-11,25-25,25Z"/>
</svg>