<?xml version="1.0" encoding="UTF-8"?>
<svg id="Layer_1" data-name="Layer 1" xmlns="http://www.w3.org/2000/svg" viewBox="0 0 666.67 668.67">
  <defs>
    <style>
      .cls-1 {
        fill: #045c40;
      }

      .cls-2 {
        fill: #e6941d;
      }
    </style>
  </defs>
  <path class="cls-1" d="M216.67,566.67h-16.67C66.67,566.67,0,533.33,0,366.67v-166.67C0,66.67,66.67,0,200,0h266.67c133.33,0,200,66.67,200,200v166.67c0,133.33-66.67,200-200,200h-16.67c-10.33,0-20.33,5-26.67,13.34l-50,66.67c-22,29.33-58,29.33-80,0l-50-66.67c-5.33-7.33-17.33-13.34-26.67-13.34Z"/>
  <path class="cls-2" d="M199.98,382.68c-6.33,0-12.67-2.34-17.67-7.34l-66.67-66.67c-9.67-9.67-9.67-25.67,0-35.33l66.67-66.67c9.67-9.67,25.67-9.67,35.33,0,9.67,9.67,9.67,25.67,0,35.33l-49,49,49,49c9.67,9.67,9.67,25.67,0,35.33-5,5-11.33,7.34-17.67,7.34Z"/>
  <path class="cls-2" d="M466.65,382.68c-6.33,0-12.67-2.34-17.67-7.34-9.67-9.67-9.67-25.67,0-35.33l49-49-49-49c-9.67-9.67-9.67-25.67,0-35.33,9.67-9.67,25.67-9.67,35.33,0l66.67,66.67c9.67,9.67,9.67,25.67,0,35.33l-66.67,66.67c-5,5-11.33,7.34-17.67,7.34Z"/>
  <path class="cls-2" d="M300.01,393.67c-3.33,0-6.67-.67-10-2-12.67-5.33-18.67-20-13-33l66.67-155.67c5.33-12.67,20-18.67,33-13,12.67,5.33,18.67,20,13,33l-66.67,155.67c-4,9.33-13.33,15-23,15Z"/>
</svg>