<?xml version="1.0" encoding="UTF-8"?>
<svg id="Layer_1" data-name="Layer 1" xmlns="http://www.w3.org/2000/svg" viewBox="0 0 668.74 575.78">
  <defs>
    <style>
      .cls-1 {
        fill: #045c40;
      }

      .cls-2 {
        fill: #fff;
      }

      .cls-3 {
        fill: #e6941d;
      }

      .cls-4 {
        fill: #e6e6e6;
      }
    </style>
  </defs>
  <path class="cls-1" d="M273.19,529.53c-11.09,0-20.16-9.06-20.16-20.16s9.06-20.16,20.16-20.16,20.16,9.06,20.16,20.16c.08,11.09-9.06,20.16-20.16,20.16Z"/>
  <path class="cls-4" d="M403.9,466.95c0,3.98-3.28,7.27-7.27,7.27h-246.88c-3.98,0-7.27-3.28-7.27-7.27V94.84c0-3.98,3.28-7.27,7.27-7.27h246.8c3.98,0,7.27,3.28,7.27,7.27v372.11h.08Z"/>
  <path class="cls-2" d="M170.54,168.13c-10.63,0-19.3,8.67-19.3,19.3s8.67,19.3,19.3,19.3,19.3-8.67,19.3-19.3-8.67-19.3-19.3-19.3ZM562.88,342.81c-22.97,0-41.72,18.75-41.72,41.72s18.75,41.72,41.72,41.72,41.72-18.75,41.72-41.72-18.75-41.72-41.72-41.72Z"/>
  <path class="cls-1" d="M562.88,327.19c-31.64,0-57.34,25.7-57.34,57.34s25.7,57.34,57.34,57.34,57.34-25.7,57.34-57.34-25.7-57.34-57.34-57.34ZM521.16,384.53c0-22.97,18.75-41.72,41.72-41.72s41.72,18.75,41.72,41.72-18.75,41.72-41.72,41.72-41.72-18.75-41.72-41.72h0Z"/>
  <path class="cls-2" d="M220.46,317.97c-8.91,0-16.09,7.19-16.09,16.09s7.19,16.09,16.09,16.09,16.09-7.19,16.09-16.09-7.27-16.09-16.09-16.09ZM34.99,220.55c-10.62,0-19.3,8.67-19.3,19.3s8.67,19.3,19.3,19.3,19.3-8.67,19.3-19.3-8.67-19.3-19.3-19.3h0Z"/>
  <path class="cls-1" d="M84.29,215.31c-1.41-4.06-5.78-6.25-9.92-4.92l-14.61,4.92c-6.33-6.41-15.08-10.39-24.84-10.39-19.22,0-34.92,15.62-34.92,34.92s15.62,34.92,34.92,34.92,34.92-15.62,34.92-34.92c0-3.75-.63-7.42-1.72-10.78l11.25-3.75c4.06-1.48,6.25-5.86,4.92-10h0ZM34.99,259.06c-10.62,0-19.3-8.67-19.3-19.3s8.67-19.3,19.3-19.3,19.3,8.67,19.3,19.3-8.67,19.3-19.3,19.3ZM192.1,225.31l-2.73-8.59c9.61-6.25,16.02-17.03,16.02-29.3,0-19.22-15.62-34.92-34.92-34.92s-34.92,15.62-34.92,34.92,15.62,34.92,34.92,34.92c1.41,0,2.81-.08,4.14-.23l2.5,7.97c1.02,3.36,4.14,5.47,7.42,5.47.78,0,1.56-.16,2.34-.39,4.3-1.33,6.56-5.78,5.23-9.84h0ZM177.65,205.31c-.31.08-.62.23-.86.31-1.95.7-4.06,1.09-6.25,1.09-10.63,0-19.3-8.67-19.3-19.3s8.67-19.3,19.3-19.3,19.3,8.67,19.3,19.3c0,8.05-5.08,15-12.19,17.89h0ZM198.82,280.16c.78,0,1.56-.16,2.34-.39,4.14-1.33,6.41-5.7,5.08-9.77l-4.69-14.92c-1.33-4.14-5.7-6.41-9.77-5.08-4.14,1.33-6.41,5.7-5.08,9.77l4.69,14.92c1.02,3.36,4.06,5.47,7.42,5.47h.01ZM276.94,286.09l-6.25,4.77c-3.44,2.58-4.14,7.5-1.48,10.94,1.56,2.03,3.91,3.05,6.25,3.05,1.64,0,3.28-.55,4.69-1.56l6.25-4.77c3.44-2.58,4.14-7.5,1.48-10.94-2.58-3.44-7.5-4.06-10.94-1.48h0ZM350.07,240.31c-2.58-3.44-7.5-4.14-10.94-1.48l-6.25,4.77c-3.44,2.58-4.14,7.5-1.48,10.94,1.56,2.03,3.91,3.05,6.25,3.05,1.64,0,3.28-.55,4.69-1.56l6.25-4.77c3.44-2.58,4.14-7.5,1.48-10.94h0ZM308.04,262.42l-6.25,4.77c-3.44,2.58-4.14,7.5-1.48,10.94,1.56,2.03,3.91,3.05,6.25,3.05,1.64,0,3.28-.55,4.69-1.56l6.25-4.77c3.44-2.58,4.14-7.5,1.48-10.94-2.58-3.36-7.5-4.06-10.94-1.48h0ZM245.85,309.77l-2.81,2.11c-5.78-5.86-13.75-9.53-22.58-9.53-1.33,0-2.58.08-3.83.23l-.86-2.81c-1.33-4.14-5.7-6.41-9.84-5.08-4.14,1.33-6.41,5.7-5.08,9.84l1.17,3.83c-8.05,5.78-13.28,15.16-13.28,25.78,0,17.5,14.22,31.72,31.72,31.72s31.72-14.22,31.72-31.72c0-2.97-.39-5.86-1.17-8.59l4.3-3.28c3.44-2.58,4.14-7.5,1.48-10.94-2.58-3.52-7.5-4.22-10.94-1.56h0ZM204.37,334.06c0-8.91,7.19-16.09,16.09-16.09s16.09,7.19,16.09,16.09-7.19,16.09-16.09,16.09-16.09-7.19-16.09-16.09Z"/>
  <path class="cls-1" d="M609.6,215.47h-153.83V59.22c0-32.66-26.56-59.22-59.22-59.22h-246.8c-32.66,0-59.22,26.56-59.22,59.22v457.34c0,32.66,26.56,59.22,59.22,59.22h459.77c32.66,0,59.22-26.25,59.22-58.52v-243.2c.08-32.34-26.48-58.59-59.14-58.59ZM396.63,544.53h-246.88c-15.39,0-27.97-12.5-27.97-27.97V210.94l1.95-.62c4.06-1.41,6.25-5.78,4.92-9.92-1.02-3.05-3.83-5.08-6.8-5.31V59.3c0-15.39,12.5-27.97,27.97-27.97h246.8c15.39,0,27.97,12.5,27.97,27.97v171.95c-1.48.16-3.05.78-4.3,1.8-3.28,2.81-3.67,7.73-.86,11.02l5.08,5.94.08.08v266.56c-.08,15.39-12.58,27.89-27.97,27.89h.01ZM637.57,517.27c0,15.08-12.5,27.27-27.97,27.27h-160.78c4.45-8.36,7.03-17.81,7.03-27.97v-234.14c1.8,0,3.59-.62,5-1.87,3.28-2.81,3.67-7.73.86-11.02l-5.08-5.94c-.23-.31-.55-.55-.86-.86v-16.02h153.83c15.39,0,27.97,12.27,27.97,27.27v243.28h0Z"/>
  <path class="cls-1" d="M507.33,323.05c-2.81-3.28-7.73-3.67-11.02-.86-3.28,2.81-3.67,7.73-.86,11.02l5.08,5.94c1.56,1.8,3.75,2.73,5.94,2.73,1.8,0,3.59-.62,5.08-1.88,3.28-2.81,3.67-7.73.86-11.02l-5.08-5.94h0ZM481.94,293.36c-2.81-3.28-7.73-3.67-11.02-.86s-3.67,7.73-.86,11.02l5.08,5.94c1.56,1.8,3.75,2.73,5.94,2.73,1.8,0,3.59-.62,5.08-1.88,3.28-2.81,3.67-7.73.86-11.02l-5.08-5.94h0Z"/>
  <path class="cls-3" d="M320.46,65.63h-94.53c-4.3,0-7.81-3.52-7.81-7.81s3.52-7.81,7.81-7.81h94.53c4.3,0,7.81,3.52,7.81,7.81s-3.52,7.81-7.81,7.81Z"/>
  <path class="cls-2" d="M401.4,141.48c-26.25,0-47.58,21.33-47.58,47.58s21.33,47.58,47.58,47.58,47.58-21.33,47.58-47.58-21.33-47.58-47.58-47.58h0Z"/>
  <path class="cls-1" d="M401.4,125.86c-34.84,0-63.2,28.36-63.2,63.2s28.36,63.2,63.2,63.2,63.2-28.36,63.2-63.2-28.36-63.2-63.2-63.2ZM353.9,189.06c0-26.25,21.33-47.58,47.58-47.58s47.58,21.33,47.58,47.58-21.33,47.58-47.58,47.58-47.58-21.33-47.58-47.58h0Z"/>
</svg>