<?xml version="1.0" encoding="UTF-8"?>
<svg id="Layer_1" data-name="Layer 1" xmlns="http://www.w3.org/2000/svg" viewBox="0 0 700.16 699.61">
  <defs>
    <style>
      .cls-1 {
        fill: #045c40;
      }

      .cls-2 {
        fill: #e6941d;
      }
    </style>
  </defs>
  <path class="cls-1" d="M285.94,95.7v317.5h318.36c-3.12,26.64-10,52.58-20.47,77.42-14.38,34.06-35,64.61-61.33,90.86-26.25,26.25-56.87,46.88-90.94,61.25-35.23,14.92-72.66,22.42-111.33,22.42s-76.09-7.58-111.33-22.42c-34.06-14.38-64.61-35-90.94-61.25-26.25-26.25-46.88-56.8-61.25-90.86-14.92-35.23-22.42-72.66-22.42-111.25s7.58-76.02,22.42-111.25c14.37-34.06,35-64.61,61.25-90.86,26.25-26.25,56.88-46.88,90.94-61.25,24.77-10.31,50.55-17.11,77.03-20.31M320.31,59.3C143.44,59.3,0,202.66,0,379.45s143.44,320.16,320.31,320.16,320.31-143.36,320.31-320.16v-.62h-320.31V59.3h0Z"/>
  <path class="cls-2" d="M392.34,12.73c34.14,1.33,67.5,8.28,99.22,20.63,34.38,13.36,65.78,32.66,93.44,57.42,56.02,50.08,91.72,118.52,100.55,192.73.94,7.73,1.56,15.62,1.88,23.59h-295.08V12.73M379.84,0v319.53h320.31c0-12.73-.78-25.23-2.27-37.58C679.06,123.2,543.83,0,379.84,0ZM156.88,551.72c-18.05-18.05-33.05-38.36-44.77-60.7l-11.48,5.08c27.89,53.28,73.44,95.86,128.91,119.92l3.36-12.19c-28.36-12.5-53.98-30-76.02-52.11Z"/>
</svg>