<?xml version="1.0" encoding="UTF-8"?>
<svg id="Layer_1" data-name="Layer 1" xmlns="http://www.w3.org/2000/svg" viewBox="0 0 492.1 800">
  <defs>
    <style>
      .cls-1 {
        fill: #045c40;
      }
      .cls-2 {
        fill: #e6941d;
      }
    </style>
  </defs>
  <path class="cls-1" d="M246.91,670.24c-35.77,0-64.88,29.1-64.88,64.88s29.1,64.88,64.88,64.88,64.88-29.1,64.88-64.88-29.1-64.88-64.88-64.88ZM246.91,768.13c-18.2,0-33.01-14.81-33.01-33.01s14.81-33.01,33.01-33.01,33.01,14.81,33.01,33.01-14.81,33.01-33.01,33.01Z"/>
  <path class="cls-1" d="M246.05,0C110.38,0,0,110.38,0,246.05c0,35.84,29.15,64.99,64.99,64.99s64.99-29.15,64.99-64.99c0-64,52.07-116.07,116.07-116.07s116.07,52.07,116.07,116.07-52.07,116.07-116.07,116.07c-35.84,0-64.99,29.15-64.99,64.99v151.63c0,35.84,29.15,64.99,64.99,64.99s64.99-29.15,64.99-64.99v-95.35c49.02-13.47,93.28-42.26,125.72-82.01,35.69-43.74,55.34-98.9,55.34-155.32,0-135.67-110.38-246.05-246.05-246.05ZM291.71,455.33c-7.32,1.6-12.54,8.08-12.54,15.57v107.83c0,18.26-14.86,33.12-33.12,33.12s-33.12-14.86-33.12-33.12v-151.63c0-18.26,14.86-33.12,33.12-33.12,81.57,0,147.94-66.37,147.94-147.94s-66.37-147.94-147.94-147.94S98.11,164.48,98.11,246.05c0,18.26-14.86,33.12-33.12,33.12s-33.12-14.86-33.12-33.12C31.87,127.95,127.95,31.87,246.05,31.87s214.18,96.08,214.18,214.18c0,99.98-70.87,188-168.52,209.28Z"/>
  <path class="cls-2" d="M246.05,468.53c-8.8,0-15.94,7.13-15.94,15.94v92.43c0,8.8,7.13,15.94,15.94,15.94s15.94-7.13,15.94-15.94v-92.43c0-8.8-7.13-15.94-15.94-15.94Z"/>
  <path class="cls-2" d="M246.05,411.15c-8.8,0-15.94,7.13-15.94,15.94v14.34c0,8.8,7.13,15.94,15.94,15.94s15.94-7.13,15.94-15.94v-14.34c0-8.8-7.13-15.94-15.94-15.94Z"/>
</svg>