<?xml version="1.0" encoding="UTF-8"?>
<svg id="Layer_1" data-name="Layer 1" xmlns="http://www.w3.org/2000/svg" viewBox="0 0 800 722.81">
  <defs>
    <style>
      .cls-1 {
        fill: #045c40;
      }
    </style>
  </defs>
  <path class="cls-1" d="M242.49,79.95c-12.55,7.24-25.75,27.22-27.28,70.79-.73,20.7-18.1,36.89-38.79,36.16-20.7-.73-36.89-18.1-36.16-38.79,1.88-53.42,18.77-106.57,64.74-133.11,46.09-26.61,100.75-14.53,148.07,10.72,18.27,9.75,25.18,32.46,15.44,50.74-9.75,18.27-32.46,25.18-50.74,15.44-38.67-20.63-62.68-19.2-75.27-11.94ZM443.57,144.99c15.95-13.21,39.59-11,52.8,4.95,27.72,33.46,54.31,71.61,78.44,113.41,52.02,90.09,84.09,182.38,92.73,259.8,4.31,38.64,3,75.42-6.03,106.96-9.1,31.78-26.81,60.55-56.52,77.7-35.95,20.76-77.45,17.81-115.44,3.98-38.12-13.88-77.36-40.16-114.76-74.3-15.3-13.97-16.38-37.69-2.42-52.98,13.96-15.29,37.68-16.38,52.98-2.41,32.96,30.08,63.93,49.78,89.86,59.22,26.07,9.49,42.47,7.21,52.28,1.55,8.22-4.74,16.49-14.41,21.92-33.38,5.49-19.2,7.23-45.49,3.6-78-7.25-64.91-35.06-147.33-83.14-230.62-22.12-38.31-46.32-72.98-71.25-103.07-13.21-15.95-11-39.59,4.95-52.8Z"/>
  <path class="cls-1" d="M725,371.63c0-14.49-10.7-35.91-47.67-59.03-17.56-10.98-22.9-34.12-11.92-51.68s34.11-22.9,51.67-11.92c45.32,28.34,82.91,69.54,82.91,122.62s-37.79,94.51-83.31,122.87c-17.58,10.95-40.71,5.58-51.66-12-10.95-17.58-5.57-40.71,12-51.66,37.21-23.18,47.98-44.68,47.98-59.21ZM568.13,513.24c3.47,20.42-10.27,39.79-30.69,43.25-42.83,7.28-89.17,11.23-137.44,11.23-104.02,0-199.99-18.37-271.36-49.6-35.63-15.58-66.81-35.12-89.62-58.7C16.05,435.66,0,405.93,0,371.63c0-41.5,23.3-75.98,54.27-101.96,31.08-26.08,73.46-46.91,121.73-62.24,19.74-6.27,40.82,4.66,47.09,24.4,6.27,19.74-4.66,40.82-24.4,47.09-42.53,13.5-75.08,30.47-96.22,48.21-21.26,17.83-27.48,33.17-27.48,44.5,0,9.49,4.24,21.49,17.95,35.67,13.88,14.36,35.78,29.01,65.76,42.12,59.83,26.17,145.11,43.3,241.3,43.3,44.24,0,86.37-3.63,124.88-10.17,20.42-3.46,39.79,10.28,43.25,30.69Z"/>
  <path class="cls-1" d="M243.6,642.87c12.55,7.25,36.45,8.69,74.95-11.77,18.29-9.72,40.99-2.77,50.71,15.51,9.72,18.29,2.77,40.99-15.52,50.71-47.2,25.08-101.68,37.03-147.65,10.49-46.09-26.61-62.96-79.98-64.75-133.59-.69-20.7,15.52-38.04,36.22-38.74,20.7-.69,38.04,15.52,38.74,36.22,1.47,43.81,14.71,63.89,27.29,71.15ZM199.39,436.21c-19.42-7.21-29.32-28.79-22.11-48.2,15.12-40.73,34.86-82.84,59-124.64,52.01-90.09,115.91-164.01,178.63-210.2,31.31-23.06,63.82-40.31,95.65-48.26,32.07-8.02,65.84-7.05,95.54,10.1,35.95,20.75,54.15,58.17,61.16,97.98,7.04,39.96,3.9,87.08-6.97,136.54-4.44,20.23-24.45,33.02-44.67,28.58-20.23-4.44-33.02-24.44-28.58-44.67,9.57-43.58,11.15-80.25,6.36-107.43-4.82-27.32-15-40.38-24.81-46.05-8.21-4.74-20.72-7.07-39.86-2.29-19.38,4.84-43.01,16.49-69.36,35.89-52.59,38.73-110.06,104.02-158.15,187.32-22.12,38.31-40.04,76.61-53.63,113.24-7.21,19.42-28.79,29.32-48.2,22.11Z"/>
  <path class="cls-1" d="M472.96,364.66c0,37.54-30.43,67.97-67.97,67.97s-67.97-30.43-67.97-67.97,30.43-67.97,67.97-67.97,67.97,30.43,67.97,67.97Z"/>
</svg>