<?xml version="1.0" encoding="UTF-8"?>
<svg id="Layer_1" data-name="Layer 1" xmlns="http://www.w3.org/2000/svg" viewBox="0 0 571.44 800">
  <defs>
    <style>
      .cls-1 {
        fill: #f79901;
      }

      .cls-2 {
        fill: #fff;
        stroke: #231f20;
        stroke-linecap: round;
        stroke-miterlimit: 10;
      }
    </style>
  </defs>
  <path class="cls-2" d="M266.31,61h24.82c112.92,0,204.59,91.67,204.59,204.59v260.82c0,112.92-91.67,204.59-204.59,204.59h-54.87c-96.33,0-174.53-78.21-174.53-174.53v-290.87c0-112.92,91.67-204.59,204.59-204.59Z"/>
  <path class="cls-1" d="M265.92,377.07c-26-4.1-39.93-21.8-33-76.5l.77-6.6c5.83-47.53,10.7-58.1,33.2-56.87,6.6.43,14.2,4.67,21.8,11,7.03,8.23,22.67,18.93,31.5,40.13,6.33,15.53,8.47,25.67,9.37,36.6l1.4,13.4v-.07c2.09,12.34,13.8,20.65,26.14,18.56,9.59-1.63,17.07-9.19,18.6-18.79.27-1.47,5.87-145.5,5.87-147.87,0-12.67-10.07-23-22.67-23.2-12.61.06-22.79,10.32-22.73,22.93h0c0,.3-.03,20.17-.47,40.2-17.87-19.73-40.77-37.43-66.47-39-68.6-3.67-76.1,60.37-80.63,97.27l-.67,6.53c-9.27,72.97,14.7,118.97,71,127.9,61.27,9.77,102.1,24,102.47,62.27.23,14.87-7.47,30.1-20.9,41.8-16,13.94-37.33,20.12-58.3,16.9-6.11-1.05-12.12-2.62-17.97-4.7-8-4.53-28.23-17-38.47-31.4-8.67-12.13-11.67-31.23-12.6-43.33.13-5.43.17-9,.17-9.43.24-12.6-9.7-23.05-22.3-23.43-12.68-.13-23.07,10.05-23.2,22.73,0,0,0,0,0,0,0,.43-.57,45.57-2.2,72.77-2.33,43.77,0,80.87,0,82.47.93,12.73,11.67,22.33,24.23,21.47,12.51-.81,22-11.61,21.19-24.12,0-.11-.01-.21-.02-.32,0-.2-1.1-18.17-.97-43,19.58,12.86,41.55,21.62,64.6,25.77,34.23,5.72,69.21-4.33,95.2-27.33,23.77-20.63,37.4-48.8,37-77.33-.8-85.17-95.5-100.13-140.93-107.4M358.18,0c-31.84.03-63.13,8.33-90.8,24.1h-3.73c-87.9,0-164.57,46.4-205,124.27-24.27,46.43-30,91.67-33.3,119.3-.4,2.97-.6,5.67-.93,8.73-4,32.47-4.1,63.47-.33,92.4-13.22,26.17-20.34,54.99-20.83,84.3v.53c-.27,21.68-.91,43.35-1.9,65-1.71,32.64-1.79,65.35-.27,98l.43,6.97c7.47,98.93,89.5,176.4,186.97,176.4,41.95.12,82.68-14.11,115.43-40.33,63.97-2.52,125.13-27.01,173.17-69.33,60.87-52.9,95.3-128.17,94.33-206.33-.43-45.4-11.53-87.93-32.6-125.43,3.9-42.43,7.37-166.53,7.37-167.67C546.18,87.47,463.38,1.9,361.55,0h-3.37ZM360.05,89.17c54.73,1,99.27,47.07,99.27,102.7,0,1.27-4.83,149.9-7.17,162.77-1.37,7.9-3.64,15.62-6.77,23,25.2,29.67,38.83,66.67,39.17,108.53.7,51.83-22.7,102.53-64.2,138.67-34.97,30.9-80,48.01-126.67,48.13-8-.05-15.99-.59-23.93-1.6-1.81,2.47-3.73,4.86-5.73,7.17-18.87,22.03-46.46,34.68-75.47,34.6-52.43,0-96.57-41.83-100.43-95.2l-.27-4.07c-1.38-29.56-1.33-59.18.17-88.73,1.3-22.63,2-61.03,2.07-69.33.35-24.9,9.61-48.84,26.1-67.5-7.9-27.83-10.4-61.2-5.57-100.67l.8-7.07c2.77-23.17,6.93-57.33,24-90,25.5-49.1,72.27-77.27,128.27-77.27,9.21-.05,18.4.73,27.47,2.33,18.2-16.67,42.33-27,68.9-26.47h0Z"/>
</svg>