<?xml version="1.0" encoding="UTF-8"?>
<svg id="Layer_1" data-name="Layer 1" xmlns="http://www.w3.org/2000/svg" viewBox="0 0 700.94 700.94">
  <defs>
    <style>
      .cls-1 {
        fill: #045c40;
      }

      .cls-2 {
        fill: #e6941d;
      }
    </style>
  </defs>
  <path class="cls-2" d="M342.73,350.55c0,4.31,3.5,7.81,7.81,7.81s7.81-3.5,7.81-7.81-3.5-7.81-7.81-7.81-7.81,3.5-7.81,7.81Z"/>
  <path class="cls-1" d="M350.55,190.23c21.64,0,42.66,4.22,62.34,12.58,19.06,8.05,36.25,19.61,50.94,34.38s26.25,31.87,34.38,50.94c8.36,19.77,12.58,40.7,12.58,62.34s-4.22,42.66-12.58,62.34c-8.05,19.06-19.61,36.25-34.38,50.94-14.69,14.69-31.87,26.25-50.94,34.38-19.77,8.36-40.7,12.58-62.34,12.58s-42.66-4.22-62.34-12.58c-19.06-8.05-36.25-19.61-50.94-34.38-14.69-14.69-26.25-31.87-34.38-50.94-8.36-19.77-12.58-40.7-12.58-62.34s4.22-42.66,12.58-62.34c8.05-19.06,19.61-36.25,34.38-50.94s31.87-26.25,50.94-34.38c19.69-8.28,40.7-12.58,62.34-12.58M350.55,173.05c-97.97,0-177.42,79.45-177.42,177.42s79.45,177.5,177.42,177.5,177.42-79.45,177.42-177.42-79.45-177.5-177.42-177.5h0Z"/>
  <path class="cls-2" d="M350.55,433.91c-46.02,0-83.44-37.42-83.44-83.44s37.42-83.44,83.44-83.44,83.44,37.42,83.44,83.44-37.42,83.44-83.44,83.44ZM350.55,282.73c-37.42,0-67.81,30.39-67.81,67.81s30.39,67.81,67.81,67.81,67.81-30.39,67.81-67.81-30.39-67.81-67.81-67.81Z"/>
  <path class="cls-1" d="M375.7,34.38l26.64,72.11,5.78,15.55,15.78,5.16c8.05,2.66,25.08,10.08,33.91,14.14l14.61,6.72,14.53-6.95,68.67-32.66,36.25,36.33-32.19,69.84-6.95,15.08,7.5,14.84c5.31,10.47,9.84,21.48,13.59,32.73l5.23,16.02,15.86,5.63,71.64,25.47v51.33l-72.11,26.64-15.55,5.78-5.16,15.78c-3.67,11.25-8.28,22.19-13.59,32.73l-7.66,15.08,7.27,15.23,32.66,68.67-36.33,36.33-69.61-32.27-15.08-6.95-14.84,7.5c-10.47,5.31-21.48,9.84-32.73,13.59l-16.02,5.23-5.63,15.86-25.47,71.64h-51.33l-26.64-72.11-5.78-15.55-15.78-5.16c-8.05-2.66-25.08-10.08-33.91-14.14l-14.61-6.72-14.53,6.95-68.67,32.66-36.25-36.33,32.19-69.77,6.95-15.08-7.5-14.84c-5.31-10.47-9.84-21.48-13.59-32.73l-5.23-16.02-15.86-5.63-71.64-25.47v-51.33l72.11-26.64,15.55-5.78,5.16-15.78c2.66-8.05,10.08-25.08,14.14-33.91l6.72-14.61-6.95-14.53-32.66-68.67,36.25-36.25,69.77,32.19,15.08,6.95,14.84-7.5c10.47-5.31,21.48-9.84,32.73-13.59l16.02-5.23,5.63-15.86,25.47-71.64h51.33M399.69,0h-99.61l-33.59,94.53c-12.97,4.3-25.55,9.45-37.58,15.55l-91.56-42.19-70.39,70.39,43.12,90.62s-11.33,24.53-15.55,37.58L0,301.41v99.53l94.53,33.59c4.3,12.97,9.45,25.47,15.55,37.5l-42.19,91.56,70.39,70.39,90.62-43.13s24.53,11.33,37.58,15.55l34.92,94.53h99.53l33.59-94.53c12.97-4.3,25.47-9.45,37.5-15.55l91.56,42.19,70.39-70.39-43.13-90.62c6.09-12.03,11.33-24.53,15.55-37.5l94.53-34.92v-99.53l-94.53-33.59c-4.3-12.97-9.45-25.47-15.55-37.5l42.19-91.56-70.39-70.39-90.55,43.12s-24.61-11.33-37.58-15.55C434.53,94.61,399.69,0,399.69,0Z"/>
</svg>