<?xml version="1.0" encoding="utf-8"?>
<svg width="800px" height="800px" viewBox="0 0 64 64" xmlns="http://www.w3.org/2000/svg" stroke-width="3" stroke="#000000" fill="none">
  <g transform="matrix(1, 0, 0, 1, -0.493392, 0.704846)">
    <polyline points="38.328 28.402 51.898 28.402 51.898 53.552 14.248 53.552 14.248 28.402 27.818 28.402" stroke-linecap="round" style="stroke-width: 3; fill-rule: nonzero; stroke: rgb(255, 255, 255);"/>
    <path d="M 27.818 28.392 L 11.638 28.392 C 11.086 28.392 10.638 27.945 10.638 27.392 L 10.638 22.192 C 10.638 21.64 11.086 21.192 11.638 21.192 L 54.478 21.192 C 55.03 21.192 55.478 21.64 55.478 22.192 L 55.478 27.392 C 55.478 27.945 55.03 28.392 54.478 28.392 L 38.328 28.392" stroke-linecap="round" style="stroke-width: 3; fill-rule: nonzero; stroke: rgb(255, 255, 255);"/>
    <path d="M 46.788 7.252 C 45.807 6.376 44.583 5.818 43.278 5.652 C 37.988 5.082 36.198 13.772 33.578 19.982 C 33.435 20.34 33.732 20.718 34.113 20.663 C 34.153 20.657 34.191 20.647 34.228 20.632 C 40.398 18.012 48.688 16.162 48.558 10.942 C 48.486 9.525 47.848 8.196 46.788 7.252 Z" stroke-linecap="round" style="stroke-width: 3; fill-rule: nonzero; stroke: rgb(255, 255, 255);"/>
    <path d="M 22.848 5.252 C 21.546 5.416 20.324 5.975 19.348 6.852 C 18.286 7.795 17.645 9.124 17.568 10.542 C 17.438 15.762 25.728 17.612 31.898 20.232 C 32.255 20.375 32.634 20.078 32.579 19.697 C 32.573 19.658 32.563 19.619 32.548 19.582 C 29.928 13.392 28.138 4.682 22.848 5.252 Z" stroke-linecap="round" style="stroke-width: 3; fill-rule: nonzero; stroke: rgb(255, 255, 255);"/>
    <polygon points="38.328 43.172 33.058 40.172 27.818 43.172 27.818 21.162 38.328 21.162 38.328 43.172" stroke-linecap="round" style="stroke-width: 3; fill-rule: nonzero; stroke: rgb(255, 255, 255);"/>
  </g>
</svg>