<?xml version="1.0" encoding="utf-8"?>
<svg width="800px" height="800px" viewBox="0 0 64 64" xmlns="http://www.w3.org/2000/svg" stroke-width="3" stroke="#000000" fill="none" xmlns:bx="https://boxy-svg.com">
  <defs>
    <bx:grid x="5.991" y="20.158" width="100" height="100" color="red"/>
  </defs>
  <path opacity="1.000000" stroke="none" d="M 63.445 14.9 C 63.375 14.989 62.898 15.129 62.827 15.187 C 62.76 15.24 62.693 15.293 62.626 15.346 C 62.611 15.322 62.474 15.299 62.459 15.275 C 62.52 15.184 62.703 15.093 62.798 14.951 C 62.484 14.951 62.202 14.944 61.921 14.954 C 61.75 14.96 61.581 15 61.41 15.011 C 60.666 15.056 59.919 15.067 59.177 15.146 C 58.312 15.239 57.447 15.358 56.588 15.525 C 55.313 15.772 54.051 16.102 52.809 16.563 C 51.488 17.052 50.211 17.668 48.992 18.476 C 48.022 19.118 47.098 19.854 46.261 20.757 C 45.609 21.46 44.951 22.154 44.308 22.872 C 43.62 23.64 42.947 24.432 42.267 25.213 C 41.611 25.965 40.963 26.73 40.296 27.465 C 39.08 28.803 37.867 30.144 36.543 31.316 C 35.552 32.194 34.542 33.026 33.368 33.444 C 32.897 33.612 32.401 33.694 31.911 33.744 C 30.99 33.837 30.066 33.878 29.143 33.943 C 28.604 33.982 28.065 34.018 27.528 34.07 C 26.748 34.146 25.969 34.237 25.189 34.319 C 24.954 34.344 24.717 34.356 24.481 34.385 C 23.817 34.465 23.154 34.547 22.491 34.634 C 22.038 34.693 21.585 34.75 21.135 34.828 C 20.469 34.942 19.805 35.063 19.142 35.202 C 18.393 35.359 17.642 35.51 16.901 35.716 C 16.045 35.954 15.195 36.237 14.347 36.522 C 12.935 36.995 11.604 37.73 10.322 38.61 C 9.084 39.46 7.898 40.415 6.759 41.465 C 5.992 42.171 5.229 42.884 4.481 43.62 C 3.959 44.132 3.46 44.681 2.961 45.229 C 2.38 45.866 1.81 46.521 1.234 47.167 C 1.204 47.2 1.165 47.217 1.099 47.244 C 1.043 47.227 1.018 47.206 0.992 47.186 C 1.352 46.763 1.705 46.33 2.074 45.919 C 2.465 45.483 2.867 45.06 3.271 44.643 C 4.016 43.876 4.748 43.087 5.519 42.365 C 6.462 41.482 7.421 40.619 8.408 39.819 C 9.881 38.626 11.414 37.574 13.073 36.835 C 14.438 36.226 15.837 35.792 17.245 35.407 C 18.067 35.184 18.903 35.048 19.735 34.89 C 20.568 34.732 21.403 34.58 22.239 34.453 C 22.822 34.364 23.408 34.318 23.993 34.258 C 24.846 34.171 25.7 34.086 26.554 34.006 C 27.059 33.958 27.565 33.917 28.07 33.88 C 28.952 33.814 29.835 33.759 30.716 33.687 C 31.343 33.635 31.975 33.612 32.592 33.484 C 33.072 33.384 33.548 33.189 33.999 32.953 C 35.35 32.245 36.528 31.172 37.656 30.009 C 38.344 29.299 39.029 28.581 39.7 27.843 C 40.356 27.123 40.993 26.374 41.637 25.636 C 42.16 25.036 42.674 24.424 43.204 23.835 C 44.032 22.912 44.877 22.014 45.701 21.086 C 46.512 20.174 47.384 19.362 48.332 18.713 C 49.212 18.112 50.121 17.561 51.056 17.116 C 52.048 16.644 53.078 16.288 54.106 15.95 C 54.855 15.705 55.625 15.561 56.388 15.394 C 56.954 15.27 57.525 15.17 58.095 15.082 C 58.508 15.019 58.923 14.977 59.339 14.952 C 60.215 14.9 60.931 14.788 61.808 14.739 C 62.052 14.725 62.457 14.762 62.699 14.732 C 62.668 14.642 62.63 14.535 62.593 14.404 C 62.738 14.381 63.248 14.868 63.404 14.868 C 63.404 15.058 63.445 14.679 63.445 14.9 Z" style="stroke-width: 0.169; fill: rgb(4, 92, 64);"/>
</svg>