<?xml version="1.0" encoding="UTF-8"?>
<svg id="Layer_1" data-name="Layer 1" xmlns="http://www.w3.org/2000/svg" viewBox="0 0 1292 559">
  <defs>
    <style>
      .cls-1 {
        fill: none;
        stroke: #e6941d;
        stroke-miterlimit: 10;
        stroke-width: 3px;
      }
    </style>
  </defs>
  <path class="cls-1" d="M8.98,553.73c104.33-122.28,206.51-170.87,271.54-192.68,63.11-21.16,164.04-46.33,237.11-46.1,19.09.06,41.44-1.17,86.13-3.63,25.18-1.39,51.2-3.11,83.54-11.93,0,0,13.95-3.81,27.85-8.95,65.44-24.23,164.83-129.13,218.47-172.63,35.01-28.39,90.45-63.01,176.37-82.98,53.04-8.62,106.09-17.24,159.13-25.86"/>
  <path class="cls-1" d="M1255.34,3c7.25,1.28,14.5,2.55,21.75,3.83-6.8,3.49-13.59,6.97-20.39,10.46"/>
</svg>